<svg id="trace" xmlns="http://www.w3.org/2000/svg" viewBox="0 0 326 619">
  <defs>
    <style>
      .cls-1 {
        fill: #e52a01;
      }

      .cls-2 {
        fill: #fc7b20;
      }

      .cls-3 {
        fill: #f8c051;
      }

      .cls-4 {
        fill: #f1d898;
      }

      .cls-5 {
        fill: #f28a29;
      }

      .cls-6 {
        fill: #ed590f;
      }

      .cls-7 {
        fill: #079ba7;
      }

      .cls-8 {
        fill: #167384;
      }

      .cls-9 {
        fill: #12414b;
      }

      .cls-10 {
        fill: #092b35;
      }

      .cls-11 {
        fill: #f56b46;
      }

      .cls-12 {
        fill: #042628;
      }

      .cls-13 {
        fill: #079ba9;
      }

      .cls-14 {
        fill: #196c7c;
      }

      .cls-15 {
        fill: #041421;
      }

      .cls-16 {
        fill: #1294a2;
      }

      .cls-17 {
        fill: #803c29;
      }

      .cls-18 {
        fill: none;
      }

      .cls-19 {
        fill: #0f4754;
      }

      .cls-20 {
        fill: #2e2633;
      }

      .cls-21 {
        fill: #080609;
      }

      .cls-22 {
        fill: #e34103;
      }

      .cls-23 {
        fill: #83311b;
      }

      .cls-24 {
        fill: #f5b47c;
      }

      .cls-25 {
        fill: #f8ba41;
      }

      .cls-26 {
        fill: #fb6003;
      }

      .cls-27 {
        fill: #011722;
      }

      .cls-28 {
        fill: #0c4453;
      }

      .cls-29 {
        fill: #0c343e;
      }

      .cls-30 {
        fill: #060c18;
      }

      .cls-31 {
        fill: #e14208;
      }

      .cls-32 {
        fill: #f99503;
      }

      .cls-33 {
        fill: #a0543f;
      }

      .cls-34 {
        fill: #a02a14;
      }
    </style>
  </defs>
  <title>frown</title>
  <g id="forehead">
    <polygon class="cls-1" points="250 39 227 32 200 15 155 6 127 13 120 26 104 31 92 26 123 4 182 0 237 26 250 39"/>
    <polygon class="cls-2" points="287 143 296 139 289 103 272 73 232 40 191 44 154 40 139 49 123.53 41.04 104 31 120 26 127 13 155 6 200 15 227 32 250 39 283 73 305 125 310 169 287 169 287 143"/>
    <path class="cls-3" d="M285,118,272,73,232,40l-41,4-39,9,8,10,14-4,22,14,20,4,37,22,2,10,5,2,10-3v10ZM223,73,212,63l-17-9h33l17,19Z"/>
    <polygon class="cls-4" points="245 73 223 73 212 63 195 54 228 54 245 73"/>
    <path class="cls-5" d="M289,103,272,73l13,45H270V108l-10,3-5-2-2-10L216,77l-20-4L174,59l-14,4-8,13,35,17-19,25v8l25,14v8l39,3,16.63,13.61h.01L254,169h33V143l9-4Zm-53,21-25,1-14-13,46-3,3,5Z"/>
    <polygon class="cls-3" points="246 114 236 124 211 125 197 112 243 109 246 114"/>
    <polygon class="cls-6" points="248.63 164.61 203 160 197 171 157 171 174 152 152 136 135 151 106 136 106 120 152 111 145 87 123 63 123.53 41.04 139 49 154 40 191 44 152 53 160 63 152 76 187 93 168 118 168 126 193 140 193 148 232 151 248.63 164.61"/>
    <polygon class="cls-7" points="174 152 157 171 122 171 101 162 56 168 58 162 87 158 106 147 87 132 98 109 129 109 136 87 111 63 87 63 92 59 87 30 92 26 104 31 123.53 41.04 123 63 145 87 152 111 106 120 106 136 135 151 152 136 174 152"/>
    <polygon class="cls-8" points="96 95 82 125 60 125 56 112 62 87 50 67 59 51 87 30 92 59 87 63 79 73 96 95"/>
    <polygon class="cls-9" points="98 109 87 132 106 147 87 158 58 162 64 140 50 131 56 77 62 87 56 112 60 125 82 125 96 95 79 73 87 63 111 63 136 87 129 109 98 109"/>
    <polygon class="cls-10" points="64 140 58 162 56 168 56 173 25 173 31 113 50 67 56 77 50 131 64 140"/>
    <polygon class="cls-11" points="122 171 56 173 56 168 101 162 122 171"/>
    <polygon class="cls-11" points="254 169 197 171 203 160 248.63 164.61 248.64 164.61 254 169"/>
  </g>
  <g id="glasses">
    <polygon class="cls-12" points="101 219 113 228 113 238 96 252 89 249 74 255 76 261 71 261 64 253 51 259 26.2 259.74 25.98 259.21 8.59 216.86 17 209 38 210 66 179 56 173 122 171 79 187 77 209 86 217 86 220 73 227 70 236 73 241 89 225 89 219 97 211 101 214 101 219"/>
    <polygon points="66 179 38 210 17 209 8.59 216.86 7 213 0 211 0 173 56 173 66 179"/>
    <path d="M254,169l-57,2H122L79,187l-2,22,9,8v3l-13,7-3,9,3,5,16-16v-6l8-8,4,3v5l12,9v10L96,252l-7-3-15,6,2,6H71l-7-8-13,6-24.8.74L30,269l86-6,22-59h22l24,53,3,.19h.01l80.38,5.13h.01L278,263l18-57,14-15V169Zm-54,86-16-10-13-33,6-3,16,16,35-3-3-13,12-5,19,4,3,9-41,40Zm81-9-9,8-13,3-3-5,24-21,5,2Zm-8-42-14-13V177h15l11,11Z"/>
    <polygon class="cls-3" points="285 188 273 204 259 191 259 177 274 177 285 188"/>
    <polygon class="cls-13" points="259 217 218 257 200 255 184 245 171 212 177 209 193 225 228 222 225 209 237 204 256 208 259 217"/>
    <polygon class="cls-14" points="285 233 281 246 272 254 259 257 256 252 280 231 285 233"/>
  </g>
  <g id="nose">
    <polygon class="cls-15" points="184 257 174.01 235.78 160 206 151 206 150 211 143 211 134 239 131 234 131 240 140 268 135 270 131 281 128 278 119 282 110 274 112 268 30 269 116 263 138 204 160 204 184 257"/>
    <polygon class="cls-4" points="174.01 235.78 163 247 163 257 155 257 146 234 151 206 160 206 174.01 235.78"/>
    <polygon class="cls-1" points="267.39 262.32 243 266 211.1 296.13 207 300 209 308 201 303 199 294 188 294 188 310 194 314 187 314 168 296 167 280 189 286 211 272 211 267 208 264 187.01 257.19 267.39 262.32"/>
    <polygon class="cls-3" points="194 278 190 282 167 277 166.17 276.63 158 273 134 239 143 211 150 211 151 206 146 234 155 257 163 257 163 247 174.01 235.78 184 257 187 257.19 188 269 194 278"/>
    <polygon class="cls-16" points="166.17 276.63 153 292 145 292 136 282 134 284 131 281 135 270 140 268 131 240 131 234 134 239 158 273 166.17 276.63"/>
    <polygon class="cls-17" points="211 267 211 272 189 286 167 280 168 296 152 312 143 304 130 283 123 283 119 286 109 277 110 274 119 282 128 278 134 284 136 282 145 292 153 292 166.17 276.63 167 277 190 282 194 278 188 269 187 257.19 187.01 257.19 208 264 211 267"/>
    <path class="cls-18" d="M211.1,296.13"/>
  </g>
  <g id="mouth">
    <path class="cls-14" d="M152,312l-9-8-13-21h-7l-4,3-10-9L74,352l3,15,8,5,27-31-8-1-9,10-8-8,12-12,2,2,51,2V324l4-3Zm-56,2,27-26,15,21Z"/>
    <polygon class="cls-19" points="138 309 96 314 123 288 138 309"/>
    <polygon class="cls-20" points="203 336 185 332 152 340 106 339 101 332 152 334 179 326 197 327 203 336"/>
    <polygon class="cls-21" points="227 343 218 348 216 343 186 334 152 342 118.33 341.16 112 341 104 340 95 350 87 342 99 330 101 332 106 339 152 340 185 332 203 336 206 336 207 328 212 327 220 329 227 343"/>
    <polygon class="cls-22" points="152 342 149 346 122 343 118.33 341.16 152 342"/>
    <polygon class="cls-11" points="232 381 216.15 422.62 216 423 210 427 160 408 144 420 128 387 161 368 189 377 189 345 167 348 152 342 186 334 216 343 218 348 225.34 365.31 232 381"/>
    <polygon class="cls-23" points="241.91 358.78 238 372 225.34 365.31 218 348 227 343 220 329 231 331 234 337 241.91 358.78"/>
    <polygon class="cls-6" points="212 327 207 328 206 336 203 336 197 327 179 326 152 334 152 324 156 321 152 312 168 296 187 314 194 314 212 327"/>
    <polygon class="cls-24" points="216 319 220 329 212 327 194 314 188 310 188 294 199 294 201 303 209 308 220 314 216 319"/>
    <polygon class="cls-25" points="234 325 234 337 231 331 220 329 216 319 220 314 209 308 207 300 211.1 296.13 234 325"/>
    <path class="cls-18" d="M216.15,422.62"/>
    <line class="cls-18" x1="310" y1="191" x2="310" y2="190.5"/>
    <line class="cls-18" x1="26" y1="258" x2="25.98" y2="259.21"/>
  </g>
  <g id="cheeks">
    <path class="cls-26" d="M310,191l-14,15-18,57-10.6-.68h-.01L243,266l-31.9,30.13L234,325v12l7.91,21.78L238,372l-12.66-6.69L232,381l-15.85,41.62L221,421l1,6,61-47,19-46-.18994-5v-.01L298,227l12-30ZM272,304l-27-3,7-13-3-11h34l2,11Z"/>
    <polygon class="cls-4" points="285 288 272 304 245 301 252 288 249 277 283 277 285 288"/>
    <polygon class="cls-27" points="87 387 78 401 50 389 47 393 33 366 25 321 25.98 259.21 26.2 259.74 30 269 46 290 73 344 74 352 77 367 85 372 87 387"/>
    <polygon class="cls-28" points="112 268 109 277 74 352 73 344 46 290 30 269 112 268"/>
  </g>
  <g id="chin">
    <polygon class="cls-29" points="101 409 82 416 101 437 66 423 51.19 399.62 47 393 50 389 78 401 87 387 85 372 112 341 118.33 341.16 122 343 149 346 152 342 167 348 189 345 189 377 161 368 128 387 144 420 160 408 210 427 197 436 152 444 128 427 118 390 101 378 101 409"/>
    <polygon class="cls-30" points="222 427 182 456 145 456 101 437 82 416 101 409 93.36 382.25 101 378 118 390 128 427 152 444 197 436 210 427 216 423 216.15 422.62 221 421 222 427"/>
    <path class="cls-18" d="M101,409"/>
  </g>
  <g id="neck">
    <polygon class="cls-12" points="128 468 140 491 124 503 108 528 114 552 57 493 51.19 399.62 66 423 101 437 145 456 152 461 135 461 128 468"/>
    <polygon class="cls-28" points="182 500 209 537 193 569 176 552 128 551 131 571 114 552 108 528 124 503 140 491 128 468 135 461 152 461 145 456 182 456 222 427 283 380 182 500"/>
    <polygon class="cls-31" points="283 380 283 498 200 619 131 571 128 551 176 552 193 569 209 537 182 500 283 380"/>
  </g>
  <g id="ear">
    <path class="cls-32" d="M310,197l-12,30,3.81006,101.99L314,307V286l12-42V203Zm5,70s-8-3-9-3,0-20,0-20l2-4s5,9,6,9,6-4,6-4Zm5-29-6-17,6-9Z"/>
    <path class="cls-33" d="M320,245l-5,22s-8-3-9-3,0-20,0-20l2-4s5,9,6,9S320,245,320,245Z"/>
    <polygon class="cls-34" points="320 212 320 238 314 221 320 212"/>
  </g>
</svg>
