<?xml version="1.0" encoding="UTF-8" standalone="no"?>
<svg
   version="1.1"
   width="3000"
   height="3000"
   viewBox="-1460 -910 3000 3000"
   id="svg932"
   sodipodi:docname="modified.svg"
   inkscape:version="1.2 (dc2aedaf03, 2022-05-15)"
   inkscape:export-filename="modified.png"
   inkscape:export-xdpi="96"
   inkscape:export-ydpi="96"
   xmlns:inkscape="http://www.inkscape.org/namespaces/inkscape"
   xmlns:sodipodi="http://sodipodi.sourceforge.net/DTD/sodipodi-0.dtd"
   xmlns:xlink="http://www.w3.org/1999/xlink"
   xmlns="http://www.w3.org/2000/svg"
   xmlns:svg="http://www.w3.org/2000/svg">
  <sodipodi:namedview
     id="namedview934"
     pagecolor="#505050"
     bordercolor="#ffffff"
     borderopacity="1"
     inkscape:showpageshadow="0"
     inkscape:pageopacity="0"
     inkscape:pagecheckerboard="1"
     inkscape:deskcolor="#505050"
     showgrid="false"
     inkscape:zoom="0.20725"
     inkscape:cx="183.35344"
     inkscape:cy="1428.2268"
     inkscape:window-width="3840"
     inkscape:window-height="1009"
     inkscape:window-x="-8"
     inkscape:window-y="-8"
     inkscape:window-maximized="1"
     inkscape:current-layer="svg932"
     showguides="true">
    <sodipodi:guide
       position="1476.4777,3000"
       orientation="0,-1"
       id="guide1753"
       inkscape:locked="false" />
    <sodipodi:guide
       position="1500.6032,13.269011"
       orientation="0,-1"
       id="guide1755"
       inkscape:locked="false" />
    <sodipodi:guide
       position="4.984375e-05,1880.579"
       orientation="1,0"
       id="guide1757"
       inkscape:locked="false" />
    <sodipodi:guide
       position="3054.2823,1687.5754"
       orientation="1,0"
       id="guide1759"
       inkscape:locked="false" />
  </sodipodi:namedview>
  <g
     id="layer1"
     transform="translate(-424.60791,-492.15924)">
    <g
       style="fill:#536879;fill-opacity:1;stroke-linejoin:miter"
       id="g471">
      <path
         d="m 1799.6714,1117.811 -11.9331,177.3811 q -84.8399,536.0592 -496.481,857.4571 -414.4893,321.1382 -976.17948,260.4411 -536.06,-84.8398 -857.45732,-496.4807 -102.9793,-133.0605 -169.647,-289.9725 L -768.05884,1465.32 q -46.17572,-166.5015 -46.69486,-347.509 14.0176,-555.48275 382.87366,-924.3387 368.855992,-368.85603 924.33884,-382.87365 555.4829,14.01762 924.3391,382.87365 368.8559,368.85595 382.8735,924.3387"
         id="path469" />
    </g>
  </g>
  <g
     id="layer2"
     transform="translate(-424.60791,-492.15924)">
    <g
       style="fill:#ffffff;fill-opacity:1;stroke-linejoin:miter"
       id="g476">
      <path
         d="m 455.0528,-282.8404 -7.3033,0.0599 q -184.44994,-17.21468 -486.78966,272.69385 -136.10089,119.33743 -184.69489,572.53772 -86.99661,3.33335 -79.63473,23.90385 -13.8486,90.1359 -7.42618,133.72493 8.41254,37.45487 38.30603,46.37337 2.82001,-8.42665 51.45528,210.3641 -33.84853,312.89168 32.84245,477.85748 100.58502,238.8516 321.3764,393.7161 -40.110256,31.2097 -132.4998433,142.2336 -180.0968167,67.7009 -344.5959767,141.626 131.36348,107.2368 367.875365,200.9338 240.797115,80.5547 480.421085,78.9785 402.31244,-2.2111 732.56587,-213.166 L 999.6522,2091.057 909.4614,2027.8071 q -72.79844,-138.7749 -115.0437,-164.0381 269.5911,-149.988 332.7027,-300.632 53.1898,-104.7366 87.364,-253.0035 38.9586,-26.1574 52.8506,-67.0703 l 3.3473,-105.2382 48.918,-205.911 q 10.9468,-56.6478 11.6,-133.62427 -0.376,-126.50743 -76.3644,-139.60393 6.8533,-165.4405 -63.4979,-389.39893 Q 1130.2655,106.93008 1067.5577,37.1662 812.30725,-256.12503 455.0528,-282.8404 Z"
         id="path474" />
    </g>
    <g
       id="g498">
      <g
         style="fill:#000000;fill-opacity:1;stroke-linejoin:miter"
         id="g480">
        <path
           d="m 379.2554,1763.9565 -0.7149,0.01 q -122.22693,29.0289 -199.1529,82.7943 -42.41385,22.2338 -162.380032,166.4183 -173.899748,65.3091 -336.125698,137.2163 130.7146,100.7142 355.712338,186.9522 221.851262,74.312 467.790592,74.8168 67.8116,3.022 217.6788,-16.7892 84.98144,-13.4317 166.6188,-37.6079 168.0033,-51.6819 320.195,-142.4922 -114.5477,-54.1731 -222.4356,-100.6321 l -98.04983,-68.7689 Q 813.68274,1895.2771 755.0326,1869.6538 699.63196,1837.1089 577.744,1843.4105 l -186.96608,-77.1698 q -5.1582,-2.1972 -11.52252,-2.2842 z"
           id="path478" />
      </g>
      <g
         style="fill:#000000;fill-opacity:0.243137;stroke-linejoin:miter"
         id="g484">
        <path
           d="m 537.35864,1299.4229 c 8.07172,0.1136 16.65946,0.7434 25.8805,2.0076 49.95856,6.849 118.50096,32.3028 187.04321,57.7569 5.83915,123.0945 11.67815,246.1893 -40.20209,315.3457 -47.58642,63.4329 -143.73366,81.4852 -231.47793,80.2524 -7.91706,-0.1113 -15.76575,-0.3797 -23.50419,-0.7857 -93.50262,-4.907 -170.90856,-29.9374 -215.05168,-105.0977 -44.14312,-75.1604 -55.02354,-200.4511 -65.90406,-325.7411 58.45954,-9.6842 116.9191,-19.3686 162.9837,-20.213 3.98373,-0.073 7.87475,-0.08 11.68112,-0.026 40.20718,0.5649 70.96536,7.8688 101.72342,15.1734 25.58408,-9.5864 51.16794,-19.1733 86.828,-18.6723 z m 632.51676,-250.6442 q -22.9242,229.404 -71.6883,320.0819 -42.1071,94.9656 -200.92276,236.8462 -32.90948,-200.1001 -65.61114,-286.2968 -28.4903,-77.8182 -75.63947,-98.7904 -17.69018,-11.145 -66.76423,-11.8348 -0.8701,-0.012 -1.75,-0.021 -195.6561,24.6852 -243.45708,24.0134 -2.4816,-0.035 -4.56464,-0.1379 -1.37222,0.074 -3.09512,0.05 -7.00922,-0.098 -19.82396,-1.8224 -41.05067,-15.095 -50.65037,-15.2296 -0.26081,0 -0.49848,0 -21.61569,-3.9599 -59.57065,-4.7452 -68.59987,1.6682 -99.15002,14.8597 -86.10111,38.3247 -94.86649,108.622 -21.60646,85.6717 -5.57938,278.3608 -192.51492,-166.6857 -233.58594,-263.36 -50.70649,-107.6714 -42.80749,-282.797 l 0.42492,-26.753 -34.45636,81.3514 c -5.20452,128.9843 4.53703,260.7683 69.16508,388.3718 89.089837,175.9013 281.24712,341.6567 439.53043,403.9095 53.4718,21.0304 103.53021,30.474 151.406,31.1471 96.47159,1.3554 180.83261,-33.0279 261.84705,-72.1481 120.8655,-58.363 250.36374,-135.3539 332.2674,-239.0891 62.4269,-79.0668 95.7084,-171.9926 121.2835,-264.5555 h 0.017 q 5.4876,-51.1733 4.3171,-102.932 2.1372,-64.8443 -5.7767,-217.1056 z"
           id="path482" />
      </g>
      <g
         style="fill:#000000;fill-opacity:1;stroke-linejoin:miter"
         id="g488">
        <path
           d="m 461.05402,-255.90944 c -6.59964,-0.0927 -13.17615,-0.0337 -19.68338,0.18369 l 9e-5,0.001 c -125.86267,4.20312 -222.78519,67.41469 -310.50121,131.75576 -88.306917,64.77447 -178.976785,139.502328 -235.25674,264.7158 -55.08852,122.56245 -75.98607,291.83885 -96.27288,453.79716 l -0.003,0.001 -30.5929,209.9601 c -0.20463,1.4044 -0.31726,2.8205 -0.3372,4.2395 l -2e-5,0.001 c -0.0371,2.6408 0.24703,5.2763 0.84618,7.84847 l 36.86838,158.27833 -0.004,10e-4 c -14.93048,173.92123 -30.46794,358.29343 58.8661,534.67693 89.089837,175.9013 281.24712,341.6567 439.53043,403.9095 h 9e-5 c 53.47171,21.0292 103.53012,30.4728 151.40591,31.1459 96.47159,1.3554 180.83261,-33.0279 261.84705,-72.1481 h -3e-5 c 120.86553,-58.3642 250.36377,-135.3551 332.26741,-239.0903 79.3618,-100.5156 111.6203,-223.4299 140.8245,-339.5221 l -0.018,8e-4 c 17.2988,-11.753 40.5044,-29.47 49.2976,-53.9847 v 2e-4 c 6.5438,-18.243 4.1292,-37.5338 3.0139,-49.5059 -0.9755,-10.4716 -1.878,-20.4875 -1.4276,-32.1744 v -2e-4 c 1.1116,-28.8592 10.5122,-70.2456 22.3697,-113.5348 l 3e-4,-2e-4 c 1.7673,-6.4528 3.5861,-12.9388 5.4299,-19.5149 v 10e-4 c 1.8421,-6.5699 3.7721,-13.4529 5.6424,-20.2806 v -2e-4 c 8.5523,-31.22303 17.0076,-65.38059 22.7254,-108.33756 v -1.2e-4 c 7.4077,-55.65265 12.8252,-144.23625 -9.3257,-183.05561 -0.7722,-1.35388 -1.592,-2.68548 -2.467,-3.99737 -11.2413,-16.85443 -28.0923,-25.07787 -46.1996,-25.33234 -1.0284,-0.0144 -2.0232,-0.004 -3.0276,0.0299 l 6e-4,0.001 c -3.8623,0.12774 -7.7784,0.63774 -11.7075,1.45129 4.0423,-29.08735 5.3141,-65.91825 0.9728,-118.19439 -8.2869,-99.78544 -37.3446,-260.56846 -102.488,-391.6491 C 1057.8313,43.329163 956.3233,-56.685085 833.5273,-132.09384 718.13104,-202.95848 580.3884,-254.23256 461.05402,-255.90944 Z"
           id="path486" />
      </g>
      <g
         style="fill:#7a5148;fill-opacity:0.337255;stroke-linejoin:miter"
         id="g492">
        <path
           d="M 443.83484,-252.67601 Q 351.00607,-253.9804 193.7773,-159.42352 28.91196,-54.0764 -37.300514,58.56501 -46.05622,71.67136 -54.478764,86.61289 l 11.964806,14.68723 12.215648,-15.316004 q 4.10515,-5.341726 8.198847,-10.447136 0.01067,-0.01651 0.02133,-0.0329 l 0.005,0.0012 Q 59.2664,-25.923992 136.08179,-34.07253 q 8.26974,-3.402293 61.32527,-2.65678 2.77764,0.03902 5.6781,0.08947 153.43632,17.730719 216.72176,18.619978 17.38394,0.244301 27.96545,-0.782162 0.66516,0.03507 1.45145,0.04607 16.29278,0.22892 84.62498,-9.841686 l 140.69606,-24.97684 q 56.0846,-6.461268 74.74114,-6.19916 4.0669,0.05715 6.35524,0.433846 5.13732,-0.498909 10.93386,-0.417442 40.8662,0.574218 114.49814,29.992412 95.55586,46.370114 144.93726,140.412204 51.5327,89.20476 47.2084,327.80812 l 109.8725,188.4777 q 2.584,-52.2702 3.7995,-99.8673 l 0.017,10e-4 -0.017,-0.003 0.017,0.002 q -0.01,-0.0505 -0.015,-0.0996 l 3e-4,10e-4 q 1.2254,-48.04025 1.0574,-91.31802 l 0.017,0.002 q -33.354,-242.92707 -169.3049,-403.46322 -77.9595,-100.91413 -262.254,-198.41561 -173.89204,-84.30573 -292.2028,-85.96824 -4.89166,-0.0688 -9.68817,0.004 -5.23035,-0.40735 -10.68289,-0.48395 z"
           id="path490" />
      </g>
      <g
         style="fill:#000000;fill-opacity:1;stroke-linejoin:miter"
         id="g496">
        <path
           d="m -278.04523,595.39954 c -5.5217,46.95581 -11.04339,93.91156 -6.6192,118.44316 4.4242,24.5316 18.79431,26.639 33.16445,28.7464 15.50459,53.51796 31.00918,107.03584 45.41148,155.00465 14.4023,47.96881 27.70224,90.38845 70.43382,111.24905 38.594644,18.841 101.198084,20.0953 166.880878,20.0953 7.040522,0 14.116427,-0.014 21.201932,-0.023 73.18798,-0.09 147.40064,0.4288 198.93947,-38.4115 51.53883,-38.84023 80.40385,-117.03896 101.51723,-169.5606 21.11337,-52.5217 34.47494,-79.36636 47.83651,-106.21097 11.71589,-2.54543 23.43176,-5.09093 34.68756,-5.09093 9.99143,0 19.62034,2.0057 28.56495,7.79766 19.02111,12.31677 34.94772,41.75549 53.57755,97.71918 18.6298,55.96366 39.96276,138.45286 114.70904,178.02173 52.96076,28.03613 132.73666,34.52503 204.02252,34.52503 29.32364,0 57.21069,-1.098 81.20374,-2.2459 82.3202,-3.9381 118.8005,-8.4627 148.4299,-48.5761 29.6294,-40.1133 52.4076,-115.8155 64.1022,-162.644 11.6946,-46.8285 12.3057,-64.7833 12.9166,-82.738 18.5751,-5.2208 37.1499,-10.44146 45.2199,-26.7755 8.0699,-16.33405 5.6349,-43.78156 3.2617,-67.57984 -2.3732,-23.79826 -4.6846,-43.94736 -6.9961,-64.09656 l -89.3933,-7.41656 C 1017.6658,559.6 940.30396,553.56775 859.5845,553.56775 c -17.36325,0 -34.88174,0.27911 -52.5891,0.8974 -100.0266,3.49249 -206.07707,17.80719 -280.8425,24.52148 -49.23807,4.42182 -84.90748,5.54731 -115.9441,5.54731 -16.09088,0 -30.93652,-0.30249 -45.78213,-0.60504 -57.85294,-4.9868 -115.70589,-9.9736 -197.29505,-10.917 -9.92762,-0.1148 -20.20669,-0.16974 -30.74548,-0.16974 -76.07299,0 -165.678464,2.86219 -234.3212,6.73134 -78.15216,4.40514 -129.13116,10.1156 -180.11017,15.82604 z"
           id="path494" />
      </g>
    </g>
    <g
       style="fill:#000000;fill-opacity:1;stroke-linejoin:miter"
       id="g502">
      <path
         d="m -12.663588,1569.5684 v 3e-4 q 0,0 0,-3e-4"
         id="path500" />
    </g>
    <g
       style="fill:#000000;fill-opacity:1;stroke-linejoin:miter"
       id="g506">
      <path
         d="m 68.06389,788.67236 v 4.9e-4 q 0,10e-4 0,-4.9e-4"
         id="path504" />
    </g>
    <g
       style="fill:#e6a316;fill-opacity:1;stroke-linejoin:miter"
       id="g510">
      <path
         d="m 776.5451,1158.0889 v 5e-4 q -191.90527,1665.3938 0,-5e-4"
         id="path508" />
    </g>
    <g
       style="fill:#000000;fill-opacity:1;stroke-linejoin:miter"
       id="g514">
      <path
         d="m 379.25552,1763.9567 -0.71502,0.01 q -122.22687,29.0287 -199.15287,82.7942 -42.41393,22.2336 -162.380062,166.4183 -248.592898,95.8015 -336.125518,137.2163 130.71435,100.7142 355.71219,186.952 221.85136,74.3124 467.7905,74.8168 89.16166,2e-4 174.97906,-10.7451 149.0311,-22.4975 209.3187,-43.6521 168.0034,-51.6816 320.1948,-142.4919 -114.5475,-54.1729 -222.4353,-100.6319 l -98.0498,-68.769 Q 813.68286,1895.2771 755.0327,1869.6539 699.6321,1837.109 577.74414,1843.4106 l -186.96609,-77.1698 q -5.15839,-2.1972 -11.52253,-2.2841 z"
         id="path512" />
    </g>
    <g
       style="fill:#e6a316;fill-opacity:1;stroke-linejoin:miter"
       id="g518">
      <path
         d="m 379.25772,1794.1523 -15.66937,4.6036 q -114.04511,30.888 -180.44409,82.4871 -55.92527,43.0453 -147.76096,157.2461 -239.06583,91.8705 -325.95962,132.0817 78.13159,62.9905 298.912074,156.7212 132.151366,46.289 256.131806,65.9143 344.37824,50.2607 624.21504,-35.4407 130.991,-37.7192 288.0906,-124.3611 L 971.583,2141.1 864.62244,2066.0833 Q 790.9783,1915.7375 739.9673,1895.6593 689.8884,1866.9886 572.5692,1873.9406 Z"
         id="path516" />
    </g>
    <g
       style="fill:#e6a316;fill-opacity:1;stroke-linejoin:miter"
       id="g522">
      <path
         d="m 516.76,3263.2312 v 2e-4 q 0,0 0,-2e-4"
         id="path520" />
    </g>
    <g
       style="fill:#000000;fill-opacity:1;stroke-linejoin:miter"
       id="g526">
      <path
         d="m 568.3704,2369.1619 0.003,10e-5 0.002,-10e-5 q 0.003,0 0.005,-3e-4 l 0.003,8e-4 0.002,-5e-4 q 0.006,-3e-4 0.007,10e-5 h 0.007 0.0754 0.0292 0.0232 0.0172 0.0108 0.004 -0.002 -0.009 -0.0162 -0.0233 l -0.0308,5e-4 -0.002,2e-4 -0.002,-5e-4 -0.002,3e-4 -0.002,-3e-4 -0.002,5e-4 q -0.002,0 -0.004,-5e-4 l -0.0192,10e-4 h -0.01 -0.0101 -0.0107 l -0.0109,3e-4 -0.0115,-8e-4 q -0.0116,-5e-4 -0.0242,-9e-4 l -0.0127,-5e-4 h -0.0516 -0.033 l -0.0111,-3e-4 h -0.0114 q -0.0113,-7e-4 -0.023,0 h -0.0235 q -0.0118,0 -0.0239,0 h 0.0171 0.0169 q 0.017,-8e-4 0.0335,0 l 0.0166,-3e-4 0.0162,-10e-4 0.016,-5e-4 0.0157,-2e-4 0.0155,-6e-4 h 0.015 q 0.0148,0 0.0289,0 z"
         id="path524" />
    </g>
    <g
       style="fill:#000000;fill-opacity:1;stroke-linejoin:miter"
       id="g530">
      <path
         d="m 41.549606,2030.8518 -6.166316,7.6376 -7.53225,2.8675 q -3.23404,20.4483 -7.298775,70.4195 -5.806742,77.0539 -7.306065,217.4292 10.612988,4.1618 22.326188,7.834 46.644082,-60.4666 87.825852,-91.2859 33.95991,-26.9344 118.19467,-57.6145 -4.85781,15.9072 58.40556,53.8374 45.61438,27.2566 247.54853,126.7297 -1.9118,4.3992 2.39795,7.718 12.02715,4.1282 17.73791,4.7581 4.23724,-0.015 5.96448,-2.4104 5.9209,-7.985 -12.09274,-16.1568 -240.05622,-118.74 -268.92148,-139.1169 -23.68256,-15.0188 -31.57028,-23.6221 -10.59395,-9.7763 -7.37687,-23.1396 -1.78965,-3.2578 -5.02745,-3.4673 -95.00976,32.9157 -132.38937,62.8152 -43.15468,32.3691 -91.029263,94.6435 0.829254,-194.9123 16.309719,-299.8762 z m 522.672254,347.4539 0.003,5e-4 q 0.0735,0.051 0.35005,0.3276 0.083,0.087 0.1137,0.1296 0.0308,0.042 0.017,0.044 -0.065,-0.03 -0.206,-0.1757 -0.12656,-0.1345 -0.1604,-0.1765 -0.0587,-0.069 -0.12265,-0.1491 l 0.006,9e-4 z"
         id="path528" />
    </g>
    <g
       style="fill:#000000;fill-opacity:1;stroke-linejoin:miter"
       id="g534">
      <path
         d="m 574.30194,2192.4814 -0.75128,0.047 q -4.92106,1.3359 -5.21836,5.3559 l -22.53524,213.6939 12.1217,-0.3938 22.36594,-212.0911 q 0.34506,-5.501 -5.98276,-6.6121 z"
         id="path532" />
    </g>
    <g
       style="fill:#000000;fill-opacity:1;stroke-linejoin:miter"
       id="g538">
      <path
         d="m 866.7672,2067.5881 -0.0246,0.5859 q -0.0683,1.9678 1.01965,3.6097 l 105.8846,157.1626 q -80.8703,-8.0317 -101.37495,-26.0801 -12.38,-9.0542 -20.31641,-22.1379 -9.04528,-10.7735 -23.57454,-63.3526 -2.3884,-4.5234 -7.7585,-3.0197 -104.80416,81.5874 -147.8764,136.4108 -26.61416,35.2862 -34.24563,56.9327 -13.85132,35.3315 -14.86617,71.9909 l 0.15285,27.5301 11.98005,-1.0557 q -6.6498,-81.3213 45.45354,-146.7673 39.57546,-51.0828 138.33746,-129.0375 16.76075,64.206 45.73127,82.2818 22.20648,14.9017 54.12738,20.8025 31.89911,5.8987 65.81909,8.7661 3.40956,0.1906 5.42406,-2.455 2.2234,-3.9319 0.1183,-6.8819 L 890.7565,2084.4128 Z"
         id="path536" />
    </g>
    <g
       style="fill:#000000;fill-opacity:0.4;stroke-linejoin:miter"
       id="g542">
      <path
         d="m 514.4543,2357.4995 h -6.24666 l -69.01454,0.3186 q -25.7462,0.2988 -74.46806,1.7895 -131.44321,3.7481 -218.78994,9.2073 39.82976,10.0037 80.37426,17.6907 20.27259,3.8437 40.72458,7.1091 51.28698,7.657 61.75964,8.4939 39.71539,4.467 78.81287,6.9485 19.54875,1.2407 38.94305,1.9853 19.3943,0.7444 38.6341,0.9927 l 19.20117,0.124 39.02743,-0.519 38.7043,-1.5566 38.3815,-2.5948 38.05834,-3.6328 q 37.89686,-4.1516 75.14766,-10.3789 l 37.0894,-6.7463 q 36.9235,-7.2659 73.218,-16.6052 l -58.6042,-4.8729 q -40.54087,-2.3173 -57.26303,-2.8461 -48.94294,-1.9798 -126.59947,-4.18 -49.6841,-0.782 -87.0904,-0.7307 z"
         id="path540" />
    </g>
    <g
       style="fill:#000000;fill-opacity:0.4;stroke-linejoin:miter"
       id="g546">
      <path
         d="m 710.8526,1883.5858 0.12524,0.1702 q 46.45716,51.762 60.50196,94.4429 11.9899,35.7933 14.84454,110.8087 -25.72594,-24.8203 -62.2196,-4.9549 -28.05944,16.9043 -80.99347,82.5667 -44.65047,58.9006 -79.0661,139.4233 -15.37417,42.2133 -20.57392,105.5996 35.94959,-0.6526 91.3017,-5.3857 0.57985,-91.1233 37.34505,-138.5071 2.1142,-6.6753 44.31706,-51.0295 37.4527,-36.7644 95.99304,-80.8465 l 59.9614,226.6009 q 72.0164,-21.1309 134.8679,-46.8243 l -46.0414,-93.1418 q -17.5983,2.2497 -29.87896,-4.634 -21.67024,-14.9104 -28.01244,-30.7068 -16.36024,-28.4105 -55.74074,-155.1356 -24.44732,-46.9015 -46.63986,-77.8428 -39.2171,-56.5503 -90.0914,-70.6033 z"
         id="path544" />
    </g>
    <g
       style="fill:#000000;fill-opacity:1;stroke-linejoin:miter"
       id="g548" />
    <g
       style="fill:#000000;fill-opacity:1;stroke-linejoin:miter"
       id="g550" />
    <g
       style="fill:#000000;fill-opacity:0.4;stroke-linejoin:miter"
       id="g554">
      <path
         d="m 209.97821,1862.6322 q -6.89925,4.3903 -13.4137,8.9618 -38.58033,25.6151 -97.36302,91.2607 -8.2239,141.5379 -13.82349,313.729 l 74.35119,-69.02 89.66555,-37.7104 q -17.83594,-72.0625 -24.33142,-127.2052 -6.59491,-49.2475 -15.07742,-180.0158 z"
         id="path552" />
    </g>
    <g
       style="fill:#000000;fill-opacity:0.4;stroke-linejoin:miter"
       id="g558">
      <path
         d="m 281.33176,1826.1846 -10.60413,4.4873 q -63.73822,28.4863 -102.12583,62.4448 -34.11181,25.2358 -133.2185,145.3728 -166.63036,62.5188 -325.9595,132.0815 40.10013,28.3318 93.80655,59.6416 16.71554,-2.2226 62.32955,-39.467 9.77155,-5.9897 14.5861,-5.1886 9.81713,-0.4425 19.41935,4.3007 l 44.875217,25.9787 13.799223,5.6978 q 11.7296,3.0542 27.491472,-3.1302 11.5380861,-5.3352 28.787354,-20.9934 l 21.134338,-50.8491 q 27.032746,2.4661 62.045866,-19.5175 11.06037,-7.8917 84.53925,-78.9158 14.95013,-12.7566 29.20459,-20.6287 37.23858,-18.9443 79.70564,-19.5203 z"
         id="path556" />
    </g>
    <g
       style="fill:#000000;fill-opacity:0.4;stroke-linejoin:miter"
       id="g562">
      <path
         d="m 32.99225,2039.3988 -11.171135,4.2574 -38.124443,14.6285 -3.158126,257.4713 q 31.852607,13.5777 44.460868,17.7948 -0.480831,-52.3643 -0.116684,-95.5147 0.640034,-51.9216 1.021538,-59.5412 1.438183,-56.4993 7.087982,-139.0961 z"
         id="path560" />
    </g>
    <g
       style="fill:#000000;fill-opacity:0.4;stroke-linejoin:miter"
       id="g566">
      <path
         d="m 178.64148,2212.234 -13.42526,7.8463 q -51.85038,30.7796 -74.0908,51.854 -28.925564,27.0791 -55.65642,65.0742 120.3442,37.3562 184.04019,48.1939 -11.8754,-60.2905 -40.86771,-172.9684 z"
         id="path564" />
    </g>
    <g
       style="fill:#000000;fill-opacity:1;stroke-linejoin:miter"
       id="g568" />
    <g
       style="fill:#000000;fill-opacity:1;stroke-linejoin:miter"
       id="g570" />
    <g
       style="fill:#000000;fill-opacity:0.4;stroke-linejoin:miter"
       id="g574">
      <path
         d="m -172.07437,2120.081 -0.004,3e-4 q -53.2507,21.6404 -118.49782,50.4897 41.83849,29.5845 97.46909,61.7159 z"
         id="path572" />
    </g>
    <g
       style="fill:#000000;fill-opacity:0.4;stroke-linejoin:miter"
       id="g578">
      <path
         d="m 881.66,2078.0327 89.79374,143.8176 q -8.1186,10.6324 30.92936,15.9092 37.2884,5.5085 144.0468,12.3175 l 30.355,-16.6717 Q 1114.7666,2203.6582 971.58295,2141.1 Z"
         id="path576" />
    </g>
    <g
       style="fill:#000000;fill-opacity:0.4;stroke-linejoin:miter"
       id="g582">
      <path
         d="m 1013.3824,2159.3608 12.4091,14.0039 q 48.5553,55.2356 79.8181,97.9961 13.9685,-6.3193 71.1736,-37.9541 -87.8259,-41.0971 -163.4008,-74.0459 z"
         id="path580" />
    </g>
    <g
       style="fill:#000000;fill-opacity:1;stroke-linejoin:miter"
       id="g584" />
    <g
       style="fill:#000000;fill-opacity:0.462745;stroke-linejoin:miter"
       id="g588">
      <path
         d="m 248.20056,2178.5442 -22.87976,8.4516 q -61.17606,21.7622 -104.4854,50.2925 -28.41296,21.92 -60.784687,57.7534 l -25.227143,41.7693 7.7386,2.1597 q 47.96734,-39.3769 72.41166,-39.8096 4.26128,-1.0749 24.15596,2.7483 8.58985,2.2542 52.16977,22.0703 7.46558,2.6903 17.22254,3.8445 7.24774,-0.438 17.57669,-3.7326 l 44.41439,-23.0772 12.48716,-4.074 q 11.81518,-3.3049 13.92901,-3.1692 13.27597,-1.0774 26.74399,0.91 22.30258,3.1149 59.28992,17.2021 53.82174,23.2703 120.3908,58.4595 l -4.50119,41.8095 q 25.84753,0.087 50.40079,-0.6753 l -2.42102,-56.5578 Q 349.33713,2268.477 301.73203,2240.224 l -9.55918,-6.1534 z"
         id="path586" />
    </g>
    <g
       style="fill:#000000;fill-opacity:0.462745;stroke-linejoin:miter"
       id="g592">
      <path
         d="m 830.40405,2122.9475 -19.52785,14.9845 q -83.26744,64.6832 -104.97874,87.001 -24.53906,23.1944 -51.94786,58.9864 -37.57893,57.5108 -29.3214,123.2306 21.7936,-1.7218 55.61545,-5.8407 -4.12095,-41.3183 -1.82835,-55.2185 2.68144,-29.7214 15.36406,-59.5371 28.05939,-60.6709 74.21414,-84.823 25.18015,-10.6809 44.85074,-0.9053 4.99682,-1.3413 58.94623,41.5022 9.9964,6.3919 21.31536,9.0786 27.92383,5.2658 62.37403,-9.0375 -55.40833,-14.7652 -67.07706,-21.5455 -19.78555,-8.8818 -28.2986,-18.1855 -8.36665,-3.9614 -20.29634,-33.9163 -6.2204,-18.7448 -9.40381,-45.7739 z"
         id="path590" />
    </g>
    <g
       style="fill:#000000;fill-opacity:0.462745;stroke-linejoin:miter"
       id="g596">
      <path
         d="m 760.7366,1892.5023 -118.933,351.7847 q 112.5121,-128.5526 136.5577,-199.285 12.66256,-40.2267 7.5606,-73.0673 -1.8584,-16.7084 -9.94107,-40.8181 -5.22993,-15.3066 -15.24423,-38.6143 z"
         id="path594" />
    </g>
    <g
       style="fill:#000000;fill-opacity:0.462745;stroke-linejoin:miter"
       id="g600">
      <path
         d="m 641.7928,2244.3 -3.4409,4.111 -30.2116,35.9503 -3.59526,4.5345 q -10.13114,13.0786 -12.40521,19.8669 l -0.53983,2.0879 q -0.27737,2.1324 0.14176,2.689 0.46414,1.0456 3.59224,0.613 7.01176,-1.1786 26.8348,-11.7891 z"
         id="path598" />
    </g>
    <g
       style="fill:#000000;fill-opacity:0.462745;stroke-linejoin:miter"
       id="g604">
      <path
         d="m 226.88182,1767.2435 -6.81195,25.1753 q -31.04999,113.4319 -31.04134,170.0212 -2.99156,69.0688 32.01844,123.8076 37.31006,54.2092 93.8442,95.3669 9.17853,7.6323 54.26905,38.762 l 185.81884,126.4853 -328.09724,-579.6183"
         id="path602" />
    </g>
    <g
       style="fill:#000000;fill-opacity:0.462745;stroke-linejoin:miter"
       id="g606" />
    <g
       style="fill:#000000;fill-opacity:1;stroke-linejoin:miter"
       id="g610">
      <path
         d="m 219.85916,1679.1957 c -6.63507,-0.093 -13.14357,2.1629 -18.33002,6.4483 -6.30105,5.2063 -10.02891,12.8937 -10.21528,21.0649 l -0.67456,29.5833 q -3.3135,135.4573 5.15281,200.7784 h -0.007 q 8.70416,82.6549 41.26055,140.8842 h -0.008 q 16.15723,33.0158 66.14542,81.9656 c 0.55719,0.5456 1.13587,1.0668 1.73642,1.5644 l 42.20217,34.9647 c 0.42411,0.351 0.8584,0.6896 1.30238,1.0158 q 130.0582,95.467 148.04116,112.3292 c 0.26782,0.251 0.53906,0.4962 0.81641,0.7364 q 35.79423,31.0279 44.01147,49.6356 c 4.46286,10.1054 14.39666,16.6262 25.35492,16.78 0.48144,0.01 0.96509,0 1.45024,-0.017 11.52486,-0.4291 21.623,-7.8425 25.48494,-18.709 l 32.76126,-92.1919 h -0.0119 q 75.57642,-90.6535 95.08087,-148.593 h -0.0131 q 27.75976,-74.3702 29.13916,-175.9931 h -5.5e-4 q 1.45875,-72.9917 -1.38875,-150.6237 c -0.48954,-13.3476 -10.2891,-24.5145 -23.4603,-26.734 l -501.54691,-84.5062 c -1.42575,-0.2401 -2.85746,-0.3688 -4.28333,-0.3889 z"
         id="path608" />
    </g>
    <g
       style="fill:#f8ccc1;fill-opacity:1;stroke-linejoin:miter"
       id="g614">
      <path
         d="m 219.46417,1707.3508 -0.67434,29.584 q -3.26445,133.3745 4.93188,196.5586 8.08882,77.7593 38.24099,131.3286 13.73048,28.773 60.92023,74.9827 l 42.20227,34.9639 q 131.42206,96.4684 150.6394,114.4877 40.5607,35.1597 51.3258,59.5381 l 34.46425,-96.9831 q 75.51975,-89.8567 93.45555,-144.0847 26.1239,-69.897 27.4164,-166.842 1.4429,-72.1929 -1.3757,-149.0277 l -501.54673,-84.5061"
         id="path612" />
    </g>
    <g
       style="fill:#eaa187;fill-opacity:1;stroke-linejoin:miter"
       id="g618">
      <path
         d="m 219.46417,1707.3507 -0.6745,29.5836 q -3.26434,133.3751 4.93198,196.559 8.08887,77.7594 38.24103,131.3285 13.73047,28.7732 60.92025,74.9829 l 40.37697,33.4521 q 1.4562,-0.7671 2.74742,-1.3906 22.50214,-12.4141 50.86652,-13.6785 1.11798,-0.6845 4.42331,-0.6381 17.1644,0.2414 93.31285,20.1874 5.4218,0.8287 10.0112,0.8931 12.6444,0.1779 18.9704,-5.4465 22.4085,-12.2996 -14.16374,-139.5532 l 141.58191,-184.9682 -128.30152,-86.8476 z"
         id="path616" />
    </g>
    <g
       style="fill:#eaa187;fill-opacity:0.34902;stroke-linejoin:miter"
       id="g622">
      <path
         d="m 655.787,1848.1969 7.8155,78.851 q 4.6674,38.3884 5.02805,61.9651 0.0509,23.8887 -0.61745,29.35 -0.63523,10.2161 -1.9881,21.1553 -4.48716,42.8255 -35.15116,150.3323 20.54636,-29.4912 38.86432,-62.9487 12.07444,-22.5499 21.50764,-49.8003 9.3782,-27.3484 15.0147,-61.356 9.69287,-48.8079 14.7016,-194.0304 l -65.1751,26.4817"
         id="path620" />
    </g>
    <g
       style="fill:#eaa187;fill-opacity:0.34902;stroke-linejoin:miter"
       id="g626">
      <path
         d="m 591.7986,1905.2552 -59.72914,113.6399 0.79704,1.9999 z"
         id="path624" />
    </g>
    <g
       style="fill:#eaa187;fill-opacity:0.34902;stroke-linejoin:miter"
       id="g630">
      <path
         d="m 532.8635,2020.9008 -67.43216,132.3189 q 55.94736,41.5586 84.23266,56.2146 16.7765,8.4065 26.02326,8.909 10.18234,0.1062 12.04034,-4.9517 l 2.4898,-8.2073 0.15815,-9.2785 q -0.62145,-13.4253 -8.70471,-42.0367 -10.73224,-37.3557 -48.80734,-132.9683 z"
         id="path628" />
    </g>
    <g
       style="fill:#b7745a;fill-opacity:1;stroke-linejoin:miter"
       id="g634">
      <path
         d="m 394.48563,1913.1648 -13.68497,5.4712 -13.68496,5.4713 27.36993,-10.9425"
         id="path632" />
    </g>
    <g
       style="fill:#b7745a;fill-opacity:1;stroke-linejoin:miter"
       id="g638">
      <path
         d="m 219.46417,1707.3507 -0.6745,29.5836 q -3.26434,133.3751 4.93198,196.559 8.08887,77.7594 38.24103,131.3285 13.73047,28.7732 60.92025,74.9829 l 40.37697,33.4521 1.8252,1.5122 q 7.94108,5.8291 15.47236,11.3714 -15.73922,-17.8672 -25.12823,-29.9894 -25.16681,-31.4567 -44.17293,-66.6625 -40.83116,-79.0318 -63.9506,-205.5354 h 0.008 q 124.77968,79.4746 178.46968,85.3547 10.93245,2.3593 23.34697,2.5341 50.30811,0.7067 124.95433,-34.4698 h 0.0113 q -66.26575,74.9368 -95.38111,80.8478 -8.63507,3.4839 -19.41211,3.3325 -20.11529,-0.283 -47.69263,-13.2297 h -0.01 l 83.6916,44.426 165.4131,-168.9869 -181.71108,-132.6864 z"
         id="path636" />
    </g>
    <g
       style="fill:#b7745a;fill-opacity:1;stroke-linejoin:miter"
       id="g642">
      <path
         d="m 389.31906,1996.5093 q 11.60534,6.7894 22.12628,11.7389 l -22.11682,-11.7389 z"
         id="path640" />
    </g>
    <g
       style="fill:#000000;fill-opacity:1;stroke-linejoin:miter"
       id="g646">
      <path
         d="m 461.05405,-255.90945 c -6.59965,-0.0927 -13.17615,-0.0337 -19.68338,0.18368 l 9e-5,0.001 c -125.86266,4.20313 -222.7852,67.41469 -310.50122,131.75577 -88.306933,64.774476 -178.97681,139.502339 -235.25677,264.71582 -55.08852,122.56247 -75.98607,291.83887 -96.27288,453.7972 l -0.003,10e-4 -30.59289,209.96005 c -0.20464,1.40445 -0.31726,2.8205 -0.33721,4.23951 l -1e-5,10e-4 c -0.0371,2.6408 0.24702,5.2763 0.84617,7.8484 l 36.86838,158.27835 -0.004,10e-4 c -14.93048,173.92127 -30.46794,358.29347 58.8661,534.67707 89.089853,175.9012 281.24715,341.6566 439.53048,403.9094 h 9e-5 c 53.47171,21.0292 103.53013,30.4728 151.40591,31.1459 96.47162,1.3555 180.83262,-33.0278 261.84712,-72.1481 h -10e-5 c 120.86557,-58.3642 250.3638,-135.3551 332.26747,-239.0903 79.3619,-100.5156 111.6203,-223.4299 140.8245,-339.5221 l -0.018,9e-4 c 17.2988,-11.7531 40.5044,-29.4701 49.2976,-53.9848 v 3e-4 c 6.5438,-18.2431 4.1292,-37.5339 3.0139,-49.506 -0.9754,-10.4716 -1.878,-20.4874 -1.4276,-32.1743 v -3e-4 c 1.1116,-28.8592 10.5122,-70.2456 22.3698,-113.5348 l 2e-4,-2e-4 c 1.7673,-6.4528 3.5861,-12.9387 5.4299,-19.5149 v 10e-4 c 1.8421,-6.5699 3.7721,-13.453 5.6424,-20.2806 v -2e-4 c 8.5523,-31.22311 17.0077,-65.38064 22.7255,-108.33764 v -10e-5 c 7.4077,-55.65264 12.8251,-144.23626 -9.3257,-183.0556 -0.7723,-1.3539 -1.5921,-2.6855 -2.4671,-3.9974 -11.2413,-16.8544 -28.0923,-25.07785 -46.1996,-25.3323 -1.0284,-0.0144 -2.0232,-0.004 -3.0276,0.0299 l 7e-4,0.001 c -3.8623,0.12777 -7.7785,0.6378 -11.7076,1.4513 4.0423,-29.0873 5.3141,-65.91826 0.9728,-118.1944 -8.2869,-99.78544 -37.3446,-260.56846 -102.488,-391.64912 C 1057.8314,43.329166 956.32336,-56.68509 833.52734,-132.09386 718.1311,-202.9585 580.3885,-254.23257 461.05405,-255.90945 Z"
         id="path644" />
    </g>
    <g
       style="fill:#f8ccc1;fill-opacity:1;stroke-linejoin:miter"
       id="g650">
      <path
         d="m -199.01897,809.20276 38.03765,163.29919 q -23.11911,265.33285 -0.56211,351.28565 19.5412,130.3466 106.036945,254.2206 298.196195,370.5859 580.160385,328.6335 115.72604,-17.9323 327.25,-144.9872 156.9977,-103.5545 207.4319,-199.1243 51.657,-76.3025 102.9948,-288.8245 41.6709,-24.6886 48.4334,-49.3056 -4.4045,-82.9912 2.4379,-103.8962 0.479,-16.8109 43.0016,-174.3844 l 11.2388,-68.9651 q 8.9954,-91.1281 -0.8055,-130.08976 -10.5428,-59.7945 -89.3946,-1.8559 46.7224,-109.75629 -21.2731,-388.08569 Q 1111.3245,177.99136 999.29034,47.970123 734.3926,-217.48228 442.45844,-223.16602 340.3777,-222.85283 216.47298,-143.79115 3.5094452,-0.36965942 -45.800766,99.21918 -88.43358,158.34052 -126.07929,321.44568 l -20.57381,115.28656 -52.36587,372.47052"
         id="path648" />
    </g>
    <g
       style="fill:#f8ccc1;fill-opacity:1;stroke-linejoin:miter"
       id="g652" />
    <g
       style="fill:#eaa187;fill-opacity:1;stroke-linejoin:miter"
       id="g656">
      <path
         d="m 536.47894,798.2056 -7.43438,-3.0855 q -57.94544,-24.8773 -90.18056,-27.90294 -33.2664,-3.16693 -50.9177,14.8468 -50.42546,57.11884 -47.74852,282.76904 -17.9935,-68.51965 -39.41934,-64.9646 -12.17236,-1.15234 -38.1773,36.9981 -16.19442,26.9862 -11.60489,41.3045 3.49762,6.8659 18.87965,5.4307 l 57.0312,-11.2371 q 13.63062,-1.9317 21.21973,-0.8487 3.90117,-0.2023 17.73871,4.4083 l 28.5531,12.2666 q 4.26202,1.3256 10.69906,1.3524 4.94034,1.7706 58.19077,-16.7812 17.14801,-3.8245 27.38361,-2.9213 4.1344,-0.6674 25.79828,4.8429 l 64.47418,22.7751 q 20.27753,2.9004 26.04346,-2.0275 8.4367,-4.461 12.3011,-13.9517 3.6617,-12.7525 2.81773,-16.5555 -0.31603,-19.4753 -13.35687,-46.5929 Q 592.124,983.02325 568.72296,960.04504 556.0791,947.5921 547.3172,971.8683 l 10.2324,-66.9755 q 49.3457,85.0133 63.6032,126.3784 12.6192,35.6718 2.9897,55.138 -0.4618,3.932 -13.22685,17.6742 l -5.93219,5.1391 q -42.59461,28.8315 -59.39056,43.6315 -34.74738,29.6721 -76.72065,77.0411 -7.41668,7.3671 -16.62298,11.595 -30.43424,14.026 -109.01782,-18.4065 -117.84958,-51.535 -118.21537,-122.4556 -1.77676,-50.9128 45.08005,-142.7685 18.79901,-180.3292 52.15619,-252.1207 23.23981,-45.24857 59.16022,-57.42734 29.18921,-12.09036 90.4411,-11.13436 l 64.6253,161.0285"
         id="path654" />
    </g>
    <g
       style="fill:#eaa187;fill-opacity:1;stroke-linejoin:miter"
       id="g658" />
    <g
       style="fill:#eaa187;fill-opacity:1;stroke-linejoin:miter"
       id="g662">
      <path
         d="m 256.42303,1023.8054 -124.86618,238.3305 4.31695,85.7776 -14.85824,-102.3246 143.55104,-281.20804 -8.14357,59.42454"
         id="path660" />
    </g>
    <g
       style="fill:#eaa187;fill-opacity:1;stroke-linejoin:miter"
       id="g666">
      <path
         d="m 622.56604,1038.711 145.49246,193.9305 34.6288,87.0335 q -3.02873,-63.0769 -27.4142,-107.943 -19.65835,-36.8765 -27.05795,-46.9305 -22.69615,-34.8846 -54.48295,-76.7911 -38.913,-51.7493 -124.51125,-156.91305 l 53.34509,107.61365"
         id="path664" />
    </g>
    <g
       style="fill:#eaa187;fill-opacity:1;stroke-linejoin:miter"
       id="g670">
      <path
         d="m 462.57004,1235.3334 -0.003,3e-4 -0.003,5e-4 q 8e-4,5e-4 0.002,0 l 0.002,-3e-4 0.002,-4e-4 10e-4,6e-4 0.001,4e-4 q 3e-5,0 -6e-5,0 v -10e-4 M 268.3355,-178.1353 l -6.35193,3.34638 Q 98.89537,-87.312614 -10.548813,45.685806 -72.77361,111.2016 -122.63309,301.57217 q -19.82003,80.23969 -76.38588,507.63059 l 38.03765,163.29934 q -28.40882,275.128 10.45643,407.5432 12.24134,70.0357 102.8987,208.9332 57.983551,70.7325 115.3846,125.9197 29.064634,37.3096 170.89273,130.584 245.69243,139.3292 497.61741,-18.9624 l 98.90985,-54.6143 q 13.1328,-35.1456 18.6532,-59.8965 -254.27826,163.8669 -379.5606,111.934 -63.4004,-17.2382 -116.50025,-84.9623 -41.34033,-36.0378 -148.88814,-261.1743 -17.59375,-46.5724 -19.97973,-79.2703 -6.06678,-28.4256 17.79675,-60.0661 37.88825,-35.1118 85.08601,-38.6122 l 44.34576,-0.2516 q 82.45887,23.465 81.05555,12.6355 29.3288,-19.8878 57.98688,-113.4852 -69.76557,36.0503 -116.5473,17.12 -28.40168,-0.573 -140.66198,-118.6518 l -80.1405,152.95 80.13285,-152.9502 -9.7497,-10.6426 Q 139.9283,1261.3262 79.1024,1239.8788 -34.58722,1196.8298 -91.09362,1051.891 -128.49608,936.8491 228.76491,973.2512 105.48116,568.73145 114.23799,546.39 112.78416,441.1904 231.9344,463.58463 q -42.83514,-3.70973 -59.8212,-35.28766 -2.71539,-7.73352 -2.4443,-25.61274 6.18417,-72.75589 6.12509,-98.6047 -0.14059,-38.00418 -4.08075,-67.02014 -3.32165,-25.31882 -10.36712,-50.50458 L 121.93443,76.42975 q -3.51251,-24.144044 -3.35534,-35.90694 -4.33533,-65.381132 149.75447,-218.65821 z"
         id="path668" />
    </g>
    <g
       style="fill:#eaa187;fill-opacity:1;stroke-linejoin:miter"
       id="g674">
      <path
         d="m 620.0903,1356.5873 v 10e-4 q 42.2419,-12.4001 63.0092,-16.7264 25.4386,-5.6699 43.72386,-4.6062 7.98548,0.5893 13.97889,3.0684 l 1.45635,0.6595 5.1571,3.2764 4.1004,4.143 q 7.02015,9.542 7.0762,21.3447 0.0561,11.8027 -4.867,19.6368 l -2.6177,3.1823 -3.0539,2.1023 q -2.01586,0.9188 -4.304,0.9104 l -3.4412,-0.4469 -3.68875,-1.2897 -3.91355,-2.0559 q -4.02615,-2.439 -8.4121,-6.1038 -10.875,-8.8554 -33.22104,-34.2345 l -70.98276,7.1386"
         id="path672" />
    </g>
    <g
       style="fill:#eaa187;fill-opacity:1;stroke-linejoin:miter"
       id="g678">
      <path
         d="m 609.0282,1437.6852 -13.16944,2.4647 q -39.50696,7.6481 -79.026,13.0109 -13.17352,1.7028 -26.34973,2.8979 l -13.17709,1.0363 q -11.54746,0.8764 -29.62027,1.1227 -17.53064,0.01 -28.54267,-0.623 -6.31964,-0.012 -37.93337,-2.9795 -31.61523,-3.2335 -88.54108,-12.5007 62.12729,26.0439 95.89335,35.1316 13.52398,3.7607 26.87276,6.2637 l 13.2941,2.1097 13.18466,1.3235 13.06424,0.4586 2.48081,-0.017 13.11471,-0.6655 12.98847,-1.5723 12.87371,-2.3966 q 12.81629,-2.8088 25.4491,-6.9366 31.62769,-9.99 87.14374,-38.1282"
         id="path676" />
    </g>
    <g
       style="fill:#eaa187;fill-opacity:1;stroke-linejoin:miter"
       id="g682">
      <path
         d="m 579.3776,1519.9976 -9.3327,-3.7994 q -42.0222,-17.2031 -64.2703,-22.1529 -8.93576,-2.1333 -17.64472,-3.3146 l -8.63965,-0.8902 q -10.67877,-0.8107 -21.24905,0.4707 l -9.1214,1.6117 -8.92251,2.4464 -8.7417,3.2053 q -8.65134,3.5847 -17.01334,8.3838 -20.97739,11.6939 -56.50919,42.0929 32.37586,-13.9388 52.25202,-19.8892 20.1384,-5.7015 24.74032,-6.2969 8.61026,-1.754 17.82792,-2.9316 18.08694,-2.6 51.9821,-2.4399 29.4345,0.3886 74.6422,3.5039"
         id="path680" />
    </g>
    <g
       style="fill:#eaa187;fill-opacity:1;stroke-linejoin:miter"
       id="g686">
      <path
         d="m 1227.2134,1056.3081 q -1.7424,3.8251 -3.9931,8.588 -16.8844,31.0651 -24.1574,47.7182 -9.0819,20.5449 -8.5891,32.281 0.5334,7.3302 7.6678,7.4305 0.1798,0 0.3641,4e-4 4.7371,-0.099 10.9369,-3.7893 h 0.017 q 0.9033,-19.3614 3.7419,-28.0348 0.2713,-9.5211 14.0292,-64.195 z"
         id="path684" />
    </g>
    <g
       style="fill:#eaa187;fill-opacity:1;stroke-linejoin:miter"
       id="g690">
      <path
         d="m 1207.5209,829.8982 -39.4971,29.18 1.5944,61.81395 7.4321,166.95145 q 30.1227,-31.7876 37.6874,-49.1472 11.4072,-23.0211 11.4336,-50.5319 -0.014,-27.5051 -12.2813,-47.21473 -8.1766,-15.15833 -41.2251,-38.10957 l 0.8808,-41.5948 z"
         id="path688" />
    </g>
    <g
       style="fill:#eaa187;fill-opacity:1;stroke-linejoin:miter"
       id="g694">
      <path
         d="m 1262.0249,789.6308 -43.8636,32.4062 q -0.1703,-0.81807 -0.3417,-1.641 l -10.2987,9.5022 10.6252,-7.8499 0.018,10e-4 q 14.9381,71.7859 19.7217,107.3376 5.9571,40.49103 3.8836,70.7477 6.4817,-24.5457 14.4346,-54.0153 l 9.1399,-56.0856 0.012,0.001 -0.012,-0.002 0.018,10e-4 q -0.9197,-43.1097 -3.3368,-100.404 z"
         id="path692" />
    </g>
    <g
       style="fill:#eaa187;fill-opacity:1;stroke-linejoin:miter"
       id="g696" />
    <g
       style="fill:#eaa187;fill-opacity:1;stroke-linejoin:miter"
       id="g700">
      <path
         d="m 1044.3774,1678.0549 v 5e-4 q 0,0 0,-5e-4"
         id="path698" />
    </g>
    <g
       style="fill:#eaa187;fill-opacity:0.392157;stroke-linejoin:miter"
       id="g704">
      <path
         d="m 1040.116,88.79749 8.8714,148.03833 q 33.0205,537.68918 30.3517,720.02343 -0.5061,204.37075 -33.1858,375.82405 -36.6823,163.7751 -113.9802,267.6418 -77.721,108.7868 -263.0601,238.2959 l 20.91184,10.8362 q 44.61261,-20.5125 132.95236,-69.9977 110.136,-64.6142 190.1725,-151.4599 46.69,-53.9079 88.1687,-151.6407 21.382,-43.3893 56.4856,-182.2282 4.0866,-64.6628 5.3283,-133.529 0.676,-292.3973 3.6449,-354.0966 9.2261,-167.10666 28.3361,-220.7681 l -3.2172,-37.9723 Q 1153.2328,231.26746 1040.116,88.79749 Z"
         id="path702" />
    </g>
    <g
       style="fill:#eaa187;fill-opacity:0.392157;stroke-linejoin:miter"
       id="g708">
      <path
         d="m 835.1631,1771.9053 h 0.0137 l -0.0157,9e-4 q 10e-4,0 0.002,0 z"
         id="path706" />
    </g>
    <g
       style="fill:#eaa187;fill-opacity:0.392157;stroke-linejoin:miter"
       id="g710" />
    <g
       style="fill:#eaa187;fill-opacity:0.392157;stroke-linejoin:miter"
       id="g714">
      <path
         d="m 62.81671,447.43915 20.370836,0.91513 q 63.499524,2.38252 105.515794,8.00492 27.01628,3.8982 32.54927,11.03585 l 0.67786,3.88375 q -1.25823,4.1701 -8.50422,9.27683 -4.0103,4.19623 -64.51115,35.06317 -11.12878,6.1993 -18.85843,12.19034 l -6.29315,5.86746 q -5.08698,5.7723 -3.50688,10.9359 l 3.20308,5.0117 q 4.84798,4.8598 15.59601,9.17097 33.60302,12.81473 108.07646,21.76043 112.97249,13.10834 209.20231,16.86176 158.32175,6.10889 221.47214,-10.04886 33.68416,-8.2044 54.49076,-20.4184 30.2037,-18.6345 49.54183,-40.65207 -86.61499,-0.98503 -128.33163,-10.85883 -6.76614,-0.76256 -41.6709,-10.7782 -5.65353,-0.82824 -99.61526,-35.31987 -9.24012,-3.00141 -15.57594,-4.1832 l -5.79253,-0.57473 q -0.96973,-0.43458 -4.48957,1.40908 -1.8662,1.96414 -1.10836,5.98712 8.64898,25.2161 7.9855,32.84613 -2.61148,14.41013 -7.47904,16.11502 -12.11657,9.21455 -35.58328,12.37245 -21.42142,3.55803 -47.65482,-0.82405 -27.38128,-7.41101 -14.01867,-22.49878 7.40649,-13.35267 66.28671,-50.00479 -35.59324,14.83707 -70.61648,21.66657 -12.991,2.46805 -26.95728,3.50875 l -14.04888,0.5055 q -14.10307,0.15906 -30.91862,-2.76666 -16.13586,-2.96088 -32.26605,-8.60956 -8.06781,-1.54761 -48.38103,-21.64966 -48.36982,-27.0925 -96.72468,-61.44208 l -72.06171,56.24091"
         id="path712" />
    </g>
    <g
       style="fill:#eaa187;fill-opacity:0.392157;stroke-linejoin:miter"
       id="g718">
      <path
         d="m 130.93008,424.35364 v 5.2e-4 q 638.71177,-45.39266 0,-5.2e-4"
         id="path716" />
    </g>
    <g
       style="fill:#eaa187;fill-opacity:0.392157;stroke-linejoin:miter"
       id="g722">
      <path
         d="m 146.35176,414.45767 v 5.3e-4 q 0,0.001 0,-5.3e-4"
         id="path720" />
    </g>
    <g
       style="fill:#eaa187;fill-opacity:0.392157;stroke-linejoin:miter"
       id="g726">
      <path
         d="m 419.66003,758.88464 -1.2008,23.75031 q -8.52411,158.55885 -6.57603,222.61225 1.17253,60.1929 18.93968,90.7516 -45.72938,60.4997 -127.60706,58.8249 -16.05115,-0.9704 -29.59742,-7.8772 -15.76788,-10.4179 -17.4211,-14.872 -4.85514,-6.45 -8.06282,-15.1883 l -2.71073,-9.3772 -1.7168,-10.6552 -0.6056,-18.4944 q 0.6142,-20.0152 5.29439,-45.0985 l 5.49337,-26.0972 q 6.40825,-27.2375 15.66269,-58.0231 3.4582,-13.9355 32.13424,-97.80515 l 37.62336,-104.64758 80.35063,12.19677"
         id="path724" />
    </g>
    <g
       style="fill:#eaa187;fill-opacity:0.392157;stroke-linejoin:miter"
       id="g730">
      <path
         d="m 172.78778,1321.7788 19.54805,12.5543 q 58.72821,38.5815 116.69947,68.8671 64.48277,31.4502 101.02732,37.5007 35.46234,8.0919 87.61173,5.214 38.29645,-1.4772 126.14169,-21.5076 -51.48194,12.1725 -89.50814,25.5156 -27.09943,11.5183 -27.93433,14.2209 -6.40437,4.9932 -7.82514,10.4199 -1.77223,11.0442 15.29251,22.9155 22.9563,16.0978 63.88076,33.3833 -80.1843,-25.574 -145.71557,-12.128 -30.63751,7.3515 -60.59527,30.8318 -14.33736,11.1909 -27.54796,23.6597 -50.8424,48.9278 -49.9687,46.7034 -11.93692,10.055 -23.72678,16.4184 -18.40698,10.2683 -40.24527,6.9107 -21.11603,-3.8322 -42.59268,-18.414 -26.8133,-17.257 -75.69434,-66.7133 l 61.15265,-236.3524"
         id="path728" />
    </g>
    <g
       style="fill:#eaa187;fill-opacity:0.392157;stroke-linejoin:miter"
       id="g734">
      <path
         d="m -34.638817,716.0323 -11.753265,24.74004 q -53.490593,111.01046 -57.034248,186.42896 -7.93433,90.5227 38.2794,201.6659 68.6291993,160.6321 163.64495,230.012 l 21.14158,10.2248 q 23.85257,6.1663 32.09357,1.9756 l 18.07394,-9.516 16.18171,-17.5649 14.46151,-24.882 q 26.85886,-58.5442 44.08444,-158.0645 13.86538,-70.6157 37.04343,-274.4101 L -34.638817,716.0323"
         id="path732" />
    </g>
    <g
       style="fill:#eaa187;fill-opacity:0.392157;stroke-linejoin:miter"
       id="g738">
      <path
         d="m 585.80994,950.35846 195.09582,285.94134 q -4.15076,-58.7373 11.64074,-98.5216 12.6033,-37.9257 73.54316,-134.6087 L 585.80994,950.35846"
         id="path736" />
    </g>
    <g
       style="fill:#b7745a;fill-opacity:1;stroke-linejoin:miter"
       id="g742">
      <path
         d="m 284.1997,967.8191 -5.00723,9.6714 q -21.31723,39.7647 -32.32742,70.8966 -7.54578,22.7191 -2.2207,34.792 5.586,11.8209 19.51898,18.2546 8.44943,4.584 84.25855,35.4481 -62.128,-6.5892 -86.29444,-15.4381 -9.90851,-3.4183 -17.39775,-8.0495 l -6.73323,-5.0102 -5.22119,-5.7682 -3.55794,-6.6021 -1.7939,-7.4864 -0.13066,-8.3203 1.38138,-9.0783 q 2.1374,-9.4574 6.69406,-20.1277 l 5.01029,-10.8976 q 5.53947,-11.163 12.59101,-23.084 14.40546,-23.9937 31.23019,-49.2003"
         id="path740" />
    </g>
    <g
       style="fill:#b7745a;fill-opacity:1;stroke-linejoin:miter"
       id="g746">
      <path
         d="m -161.5046,978.553 q -22.33758,260.2655 -0.0388,345.2347 15.60103,124.861 113.91721,265.1908 260.92587,318.2966 510.05701,321.7976 29.70518,0.4174 59.24258,-3.6406 50.5216,-5.282 134.4008,-42.1241 56.85836,-52.3703 131.6292,-113.6291 h -0.0133 q -73.29036,55.4595 -139.61056,83.9114 -82.5194,34.2404 -176.21988,34.6425 -102.06925,-5.1277 -145.41925,-34.0602 -56.37631,-25.6001 -154.71143,-137.9802 h -0.007 l 90.14889,136.5548 q -76.18805,-56.5287 -147.83957,-116.0957 -194.93894,-165.2171 -238.74366,-324.1007 -27.32662,-89.2533 -34.23891,-192.1792 -6.24815,-108.4313 -2.54909,-223.5243 z"
         id="path744" />
    </g>
    <g
       style="fill:#b7745a;fill-opacity:1;stroke-linejoin:miter"
       id="g750">
      <path
         d="m 838.5837,1710.318 q -26.3002,20.9285 -50.69375,40.9114 24.95005,-18.8908 50.70765,-40.9113 z"
         id="path748" />
    </g>
    <g
       style="fill:#b7745a;fill-opacity:1;stroke-linejoin:miter"
       id="g754">
      <path
         d="m -153.37502,821.8987 -35.24926,31.9293 27.36583,117.4844 q 1.60931,-46.25545 4.81945,-93.5827 z"
         id="path752" />
    </g>
    <g
       style="fill:#b7745a;fill-opacity:0.494118;stroke-linejoin:miter"
       id="g758">
      <path
         d="m 567.7551,938.12463 4.9324,9.71967 q 66.46625,123.4406 31.2093,147.2224 -8.49617,3.0375 -15.0147,0.7918 -0.3124,1.0034 -37.9908,-14.5238 -6.08094,-2.1244 -12.30274,-3.4485 -12.82606,-2.8011 -24.14146,0.1449 -13.0347,4.782 -18.12874,9.6116 -10.50196,8.0326 -34.51904,33.2389 -6.91669,6.8344 -14.03449,12.2117 -16.04907,11.1859 -26.19373,10.229 -15.04522,-0.6012 -30.91784,-10.3382 -8.48624,-4.5692 -45.92261,-31.7309 -6.31518,-4.3694 -15.49042,-8.4134 -15.90707,-6.5988 -31.42477,-0.7354 -12.20288,5.9652 -10.39789,10.8607 0.56601,0.4925 2.90833,0.5245 16.64242,-1.6053 24.39395,-0.4256 9.89599,1.5039 15.6719,4.6324 8.66672,4.8576 12.72428,8.7492 33.88861,33.6027 37.3067,34.7314 13.40921,8.8298 19.61993,8.9481 8.4842,2.8628 30.04767,-5.4828 12.25507,-4.0211 52.32057,-34.2138 -29.32664,28.3291 -44.8578,38.9016 -19.20654,13.6355 -34.70386,13.7557 -21.04494,1.798 -57.19524,-34.9089 -67.45033,-21.1079 -85.24192,-32.3289 -20.63489,-11.1018 -30.03764,-34.6394 9.80839,52.5552 22.44029,78.2901 25.82663,54.7169 92.21887,75.8063 75.1915,22.9463 115.48038,-1.8933 l 8.30462,-5.7677 q 7.86505,-6.2159 14.45887,-13.5128 10.16461,-11.4195 29.28277,-37.0138 5.54541,-6.8858 11.52332,-12.3617 2.71161,-3.5638 19.28374,-12.859 7.024,-3.8379 40.6645,-15.8604 6.44635,-2.6702 12.2669,-6.1637 17.68665,-10.8903 26.44306,-31.7361 8.37904,-24.8805 6.40414,-37.5441 -0.76364,-16.1078 -7.41336,-32.261 Q 613.71,994.1232 567.7551,938.12463"
         id="path756" />
    </g>
    <g
       style="fill:#b7745a;fill-opacity:1;stroke-linejoin:miter"
       id="g762">
      <path
         d="m 231.85709,1072.1304 -97.1005,173.265 4.41791,99.5172 -8.59465,-106.4171 122.09912,-220.7071 -20.82188,54.342"
         id="path760" />
    </g>
    <g
       style="fill:#b7745a;fill-opacity:1;stroke-linejoin:miter"
       id="g766">
      <path
         d="m 220.13121,1344.3678 v 10e-4 q -21.82927,-10.5369 -28.01261,-11.9398 -7.89942,-2.0826 -9.1867,-1.9345 -6.47488,-0.4243 -9.44403,0.9526 -6.14064,2.2266 -9.12847,9.8799 -3.50775,9.5921 -3.27282,22.5176 l 0.29077,6.1492 q 0.50044,6.1488 1.74258,11.4613 l 1.40332,4.8945 1.7257,4.059 2.02379,3.0145 2.29766,1.7613 q 0.9131,0.3986 1.89466,0.3964 l 2.54481,-0.5852 2.73325,-1.6886 2.90454,-2.6918 3.05872,-3.5946 q 3.13578,-4.046 6.51139,-9.4964 10.26387,-17.1538 21.45275,-39.7246 l 8.46069,6.5682"
         id="path764" />
    </g>
    <g
       style="fill:#b7745a;fill-opacity:1;stroke-linejoin:miter"
       id="g770">
      <path
         d="m -86.9212,2274.9124 v 4e-4 q 0,0 0,-4e-4"
         id="path768" />
    </g>
    <g
       style="fill:#b7745a;fill-opacity:1;stroke-linejoin:miter"
       id="g774">
      <path
         d="m 688.0087,1345.5461 v 10e-4 q 13.8309,6.9037 25.8029,12.151 7.8666,3.3959 13.53014,4.8279 l 2.60803,0.5166 2.22943,0.179 q 1.64606,-0.032 2.4238,-0.3766 l 1.41604,-0.9999 0.68546,-1.375 0.17,-1.7437 -0.3072,-2.0326 q -0.5457,-2.1771 -1.8923,-4.6135 -1.34663,-2.4364 -3.3408,-4.8135 -1.9942,-2.3772 -4.4825,-4.3764 l -2.5735,-1.8252 q -2.4341,-1.6131 -6.10767,-2.6818 -4.11233,-1.1428 -9.49363,-0.8224 -4.65365,0.3263 -9.58974,1.568 -6.14466,1.4694 -17.68846,5.6804 l 6.61,0.7367"
         id="path772" />
    </g>
    <g
       style="fill:#b7745a;fill-opacity:1;stroke-linejoin:miter"
       id="g778">
      <path
         d="m 542.3215,857.5751 -6.7236,-8.96096 q -36.88318,-50.21454 -61.78925,-68.45664 -24.63845,-18.507 -51.85455,-16.74 -27.1197,1.33866 -52.45587,24.065 -24.97528,24.30437 -50.00909,77.41344 -4.05411,-33.0044 -2.94556,-62.53194 2.68454,-23.42046 4.98059,-26.91985 2.77557,-8.22215 7.46329,-15.15661 6.453,-10.93574 25.46087,-20.79384 l 6.09189,-2.64293 q 6.27671,-2.46067 13.10408,-4.20374 13.74907,-3.48047 28.56914,-4.15899 33.72702,-1.59204 62.64514,10.63986 22.13776,8.5873 52.28362,36.5806 3.4097,3.0326 19.59193,19.31506 l 5.58737,62.55154"
         id="path776" />
    </g>
    <g
       style="fill:#eaa187;fill-opacity:0.392157;stroke-linejoin:miter"
       id="g782">
      <path
         d="m 333.91095,-207.13196 q -62.56509,22.96887 -122.16368,62.3206 -69.82498,43.10553 -123.83888,88.725342 -16.14575,113.508454 -22.34741,242.014178 -3.748694,115.95554 16.556085,174.6536 23.163395,69.11604 88.587215,105.88156 -11.47402,-77.64487 20.88509,-101.29544 25.9202,-19.97522 36.62497,-22.55658 l 110.53169,-38.03803 q 18.45547,-6.99185 33.83454,-15.49847 31.6792,-16.6889 39.39803,-43.51477 5.9919,-27.35253 -6.5879,-63.89232 L 358.11072,59.479485 Q 352.75592,48.768814 340.53833,-7.6563616 326.48193,-83.8571 333.91956,-207.13188 Z"
         id="path780" />
    </g>
    <g
       style="fill:#825143;fill-opacity:1;stroke-linejoin:miter"
       id="g786">
      <path
         d="m 258.7845,949.52454 v 4.6e-4 q -47.69217,53.4729 0,-4.6e-4"
         id="path784" />
    </g>
    <g
       style="fill:#825143;fill-opacity:1;stroke-linejoin:miter"
       id="g790">
      <path
         d="m 281.2693,971.7776 -5.78666,10.80254 q -18.24954,32.86936 -28.49392,61.58336 -3.11832,9.4174 -4.45772,17.9115 l -0.7835,8.2053 0.3283,7.6283 1.55132,6.9934 2.84844,6.32 4.07142,5.6852 5.18324,5.1082 q 5.73914,4.8193 13.25721,8.7154 18.35037,9.971 65.07861,20.8084 -52.70792,-6.6171 -73.14478,-15.1154 -8.38154,-3.2866 -14.69532,-7.7004 l -5.66762,-4.7661 -4.37529,-5.4708 -2.95373,-6.2458 -1.446,-7.0677 -0.0245,-7.8427 1.2679,-8.5473 q 1.91406,-8.8996 5.89585,-18.9264 l 4.3695,-10.2383 q 4.8218,-10.4848 10.93596,-21.6741 12.48674,-22.5197 27.04124,-46.1666"
         id="path788" />
    </g>
    <g
       style="fill:#825143;fill-opacity:1;stroke-linejoin:miter"
       id="g794">
      <path
         d="m 582.54663,959.7174 4.61097,11.4272 q 11.2208,28.40527 12.811,33.7393 3.84463,11.0204 6.6674,21.4985 l 2.4651,10.2884 q 2.15854,10.1257 2.6822,19.3836 l 0.0127,8.987 -1.009,8.4446 -2.1331,7.848 -3.30954,7.21 -4.33911,6.5811 -5.17215,5.9743 q -5.58865,5.6707 -12.0571,10.2156 -16.4375,11.5146 -44.8015,22.2496 55.86595,-14.4613 65.98516,-21.6841 6.46174,-3.4779 11.50994,-7.8684 l 4.5939,-4.6837 3.6852,-5.2705 2.6756,-5.9223 1.565,-6.6391 0.3871,-7.3998 -0.7235,-8.1167 -1.73316,-8.7686 q -2.23804,-9.0944 -6.09137,-19.2318 -9.22967,-25.0828 -38.28174,-78.2622"
         id="path792" />
    </g>
    <g
       style="fill:#825143;fill-opacity:1;stroke-linejoin:miter"
       id="g798">
      <path
         d="m 563.68304,1090.8864 -4.1029,-1.4264 q -22.65961,-8.0937 -35.69084,-9.5616 -13.30922,-1.734 -23.54747,2.7846 -6.20783,1.9463 -17.94653,13.9625 -5.10166,5.0206 -28.0079,37.0966 -7.92182,9.5503 -9.66828,10.7898 -9.89295,9.9574 -21.82428,10.4672 -13.78427,-1.098 -27.10929,-11.3999 -5.07232,-2.1357 -42.73169,-38.3869 -6.43399,-5.5808 -13.32241,-8.9849 -3.48102,-1.6828 -7.29665,-2.7064 -5.7863,-1.5034 -12.16383,-1.4624 -15.71891,0.3804 -25.82782,5.4169 -7.17195,3.5807 -4.43949,7.8209 3.58048,4.2515 12.79744,6.7738 5.05947,1.641 13.04625,1.6168 1.76185,0.04 5.14893,-1.0901 l 7.51858,-4.2512 2.04538,-0.6553 q 2.60846,-0.6587 7.10282,1.998 2.15158,1.14 7.72372,6.1767 30.39922,30.2092 35.41885,33.6154 11.19177,9.8006 24.25269,15.0133 7.19048,2.6275 15.93545,1.7594 4.11053,-0.5032 8.02443,-1.8614 2.07695,-0.2688 11.30843,-5.5845 5.64462,-3.2056 16.96954,-14 l 27.21451,-28.5104 q 6.25256,-6.0386 12.20319,-8.9732 5.29419,-2.532 11.3836,-1.9072 2.38391,0.2344 4.74483,0.7902 l 16.0782,4.4536 q 4.8573,0.8023 7.7997,0.1096 11.7206,-2.5728 26.96284,-19.8835"
         id="path796" />
    </g>
    <g
       style="fill:#825143;fill-opacity:1;stroke-linejoin:miter"
       id="g802">
      <path
         d="m 1167.7506,900.3371 11.2059,179.8333 q -2.6134,-60.2955 -1.4574,-84.63134 0.4015,-9.94846 1.4126,-17.75526 l 1.2017,-7.13744 1.5826,-5.79896 2.0019,-4.32646 q 2.8259,-4.32081 6.7319,-4.22638 5.016,0.19458 10.5381,5.45624 11.7407,11.69103 17.1486,29.63696 1.3967,5.16594 1.7072,10.05024 l 0.088,4.8268 q -0.1584,4.7626 -1.1066,9.3205 -2.1732,11.4458 -12.1667,30.4709 12.8879,-23.6021 17.5299,-36.1479 6.0356,-15.16013 5.4713,-28.8337 -0.2807,-4.53664 -1.3233,-8.88124 -0.1359,-2.28736 -4.5397,-12.61871 -2.5724,-6.29261 -12.3614,-19.26735 -8.2803,-11.3018 -31.9711,-33.2725 l -10.2719,-9.29505 -1.422,2.59735"
         id="path800" />
    </g>
    <g
       style="fill:#825143;fill-opacity:1;stroke-linejoin:miter"
       id="g806">
      <path
         d="m 1165.1078,863.28186 52.0806,-36.5285 q 12.5816,70.72004 16.1721,99.14911 4.0722,29.66563 6.8154,75.13523 8.7467,-15.1357 6.5957,-37.2108 -1.6278,-17.9579 -2.8246,-23.8603 -12.2052,-68.7136 -12.5653,-74.2277 -3.0376,-20.95564 -2.1183,-34.06684 1.3996,-12.15596 6.6961,-15.78776 2.5562,-1.9738 5.5353,-2.7638 l 14.3189,-2.07765 q 1.7144,0.28995 5.4148,-3.9809 2.3396,-4.15725 2.3745,-11.05195 -0.1278,-10.556 -2.2003,-23.4218 l -96.2949,90.69366"
         id="path804" />
    </g>
    <g
       style="fill:#f8ccc1;fill-opacity:1;stroke-linejoin:miter"
       id="g810">
      <path
         d="m 97.13426,-57.191994 -18.194,15.42059 Q 23.427567,1.9457512 -23.711334,68.564445 -54.749702,114.03718 -77.41449,182.41144 q -22.20032,69.87399 -34.32491,166.30752 -12.10438,96.49874 -18.0851,204.9578 -3.11639,53.7652 -5.458,107.73414 -6.56816,164.5917 -13.03143,301.7035 -4.482,110.2439 -4.32483,128.0062 -0.76329,39.9888 -0.0929,76.3757 l 1.14789,35.4798 q 1.56586,34.5761 5.27987,65.5113 11.9598,91.623 43.52714,155.7976 25.15553,55.097 83.907879,135.4488 -39.126595,-54.4844 -70.742759,-138.7056 -20.61382,-57.983 -32.32635,-151.2092 -22.18231,-203.3982 2.86578,-541.51456 Q -93.89676,390.20636 -43.090813,197.40399 -7.6775208,46.988327 97.13426,-57.191994"
         id="path808" />
    </g>
    <g
       style="fill:#f8ccc1;fill-opacity:1;stroke-linejoin:miter"
       id="g812" />
    <g
       style="fill:#000000;fill-opacity:1;stroke-linejoin:miter"
       id="g814" />
    <g
       style="fill:#faece7;fill-opacity:1;stroke-linejoin:miter"
       id="g818">
      <path
         d="m 492.06372,968.56085 0.13808,2.53699 q -0.27455,7.7514 -5.55706,13.02406 -5.32334,5.2739 -13.39651,5.3863 -7.7515,-0.27456 -13.02413,-5.5571 -5.2739,-5.3233 -5.38627,-13.39653 0.27454,-7.75153 5.55704,-13.02417 5.32336,-5.27387 13.3966,-5.38623 7.75147,0.27453 13.02408,5.55706 1.69145,1.70911 2.90909,3.81952 l 1.07443,2.19129 q 0.94358,2.28196 1.26465,4.84881"
         id="path816" />
    </g>
    <g
       style="fill:#faece7;fill-opacity:1;stroke-linejoin:miter"
       id="g822">
      <path
         d="m 563.35474,962.2658 4.61212,9.1083 q 31.3941,60.7563 37.67828,85.866 1.31786,5.4938 1.63146,9.8855 l 0.10817,4.1664 q -0.12007,3.9159 -0.97052,7.0305 -1.94349,7.9867 -11.0658,16.1921 6.67541,-2.8697 11.94045,-7.5655 3.42295,-3.2434 5.1745,-8.6511 0.8496,-2.7377 1.1247,-6.2194 l 0.11216,-3.6881 q -0.11926,-7.8759 -2.383,-17.8712 -4.76896,-20.7371 -15.21616,-40.9542 -11.5251,-21.5845 -32.74636,-47.2993"
         id="path820" />
    </g>
    <g
       style="fill:#faece7;fill-opacity:1;stroke-linejoin:miter"
       id="g826">
      <path
         d="m 284.14905,1096.3999 2.68097,-1.5337 q 14.69198,-8.7015 24.83374,-10.2795 10.81558,-1.5153 19.34771,2.2037 2.02643,-0.063 14.99845,9.1706 2.31775,1.0949 38.16668,34.3018 l 10.74463,8.0954 q 11.0445,7.4559 22.51597,7.5865 6.69897,-0.042 13.0254,-2.5819 4.81834,-1.3627 15.3934,-9.4338 5.39516,-4.3091 13.04604,-12.5951 26.52844,-31.0602 28.50818,-32.2731 10.18322,-9.4121 12.26578,-10.0908 4.5585,-2.7235 7.41873,-3.5462 8.65283,-3.3486 22.53217,0.4145 6.3284,1.9232 12.7073,4.9628 8.10684,3.8319 22.0996,11.4588 3.3329,1.6703 3.489,1.4332 -14.7613,-13.1407 -39.45094,-24.0332 -16.41131,-6.3769 -27.48326,-2.5162 -9.07234,2.8428 -17.81526,11.3951 -3.94867,2.6255 -28.10884,34.6948 -10.63683,11.8018 -13.1971,13.065 -9.3135,7.5604 -20.48135,7.9153 -1.9278,0.3883 -9.53253,-1.6043 -6.33512,-2.0826 -13.05957,-6.1142 -6.72455,-4.0315 -13.62989,-9.2203 l -33.8313,-26.2476 q -14.49696,-9.8332 -20.36526,-10.8174 -10.37653,-3.0565 -20.35852,-0.01 -11.22378,3.4276 -26.45993,16.197"
         id="path824" />
    </g>
    <g
       style="fill:#faece7;fill-opacity:1;stroke-linejoin:miter"
       id="g830">
      <path
         d="m 704.7344,521.3692 v 10e-4 q 38.44114,-5.18624 75.73325,-9.1274 24.79055,-2.55063 48.21912,-3.62616 43.81373,-1.74354 71.21193,2.73739 13.55406,2.10001 25.8747,5.5358 l 12.0684,3.70907 q 11.7881,4.01255 22.6792,8.9966 27.4519,12.2173 69.9587,41.6887 l -325.7453,-49.915"
         id="path828" />
    </g>
    <g
       style="fill:#000000;fill-opacity:1;stroke-linejoin:miter"
       id="g834">
      <path
         d="m -291.49673,347.4283 v 5.3e-4 q 0,10e-4 0,-5.3e-4"
         id="path832" />
    </g>
    <g
       style="fill:#000000;fill-opacity:1;stroke-linejoin:miter"
       id="g836" />
    <g
       style="fill:#000000;fill-opacity:1;stroke-linejoin:miter"
       id="g840">
      <path
         d="m 511.82147,2483.074 v 5e-4 q 0,9e-4 0,-5e-4"
         id="path838" />
    </g>
    <g
       style="fill:#000000;fill-opacity:1;stroke-linejoin:miter"
       id="g842" />
    <g
       style="fill:#7a5148;fill-opacity:1;stroke-linejoin:miter"
       id="g846">
      <path
         d="m -149.78271,716.655 4.15582,-45.59396 Q -116.42998,352.30502 -92.395424,259.99142 -64.21829,131.0073 -9.98558,58.04651 86.92299,-62.741394 213.223,-140.5373 q 92.91482,-53.78072 136.0964,-62.90093 54.70147,-15.3821 103.7832,-14.72067 117.56885,-1.64243 286.95496,80.11532 139.98779,61.979936 248.70068,185.033692 105.33196,138.408598 155.12926,305.179658 54.6738,159.34143 53.237,320.69229 Q 1216.252,265.50912 1018.6624,32.18811 935.15485,-76.30635 732.638,-177.7638 540.9666,-262.27737 440.77112,-251.8256 336.9245,-251.44046 172.49321,-145.87256 39.554,-60.85196 -37.30052,58.565125 -107.56231,163.73984 -156.37067,387.09042 q -36.54307,151.48578 -23.74057,340.64518 -3.14811,19.67614 -36.41737,-14.563 l 66.7459,3.4824"
         id="path844" />
    </g>
    <g
       style="fill:#7a5148;fill-opacity:0.337255;stroke-linejoin:miter"
       id="g850">
      <path
         d="M 443.83487,-252.67603 Q 351.0061,-253.98041 193.77731,-159.42354 28.911963,-54.076405 -37.300518,58.565014 -46.056225,71.671364 -54.478767,86.6129 l 11.964807,14.68723 12.215649,-15.31601 q 4.10515,-5.341725 8.198847,-10.44713 0.01066,-0.01651 0.02133,-0.0329 l 0.005,0.0012 Q 59.266403,-25.923994 136.0818,-34.072533 q 8.26975,-3.402294 61.32527,-2.65678 2.77764,0.03902 5.6781,0.08947 153.43633,17.730721 216.72178,18.61998 17.38395,0.244301 27.96545,-0.782162 0.66516,0.03507 1.45145,0.04607 16.29278,0.22892 84.62505,-9.841686 l 140.696,-24.976837 q 56.0846,-6.461268 74.7412,-6.199161 4.06687,0.05715 6.3552,0.433845 5.1373,-0.498909 10.93383,-0.417442 40.86622,0.57422 114.49817,29.992416 95.55585,46.370117 144.9373,140.41221 51.5327,89.20477 47.2084,327.80815 l 109.8726,188.47776 q 2.5839,-52.2702 3.7994,-99.8673 l 0.017,10e-4 -0.017,-0.003 0.017,0.001 q -0.01,-0.0505 -0.015,-0.0996 l 3e-4,10e-4 q 1.2254,-48.04027 1.0575,-91.31804 l 0.017,0.002 Q 1154.6138,192.72423 1018.6627,32.188065 940.70325,-68.726074 756.40875,-166.22757 582.5167,-250.5333 464.20593,-252.1958 q -4.89166,-0.0688 -9.68817,0.004 -5.23036,-0.40735 -10.68289,-0.48395 z"
         id="path848" />
    </g>
    <g
       style="fill:#ed9697;fill-opacity:1;stroke-linejoin:miter"
       id="g854">
      <path
         d="m 705.4169,1346.9019 -12.073,-2.9642 q -36.2825,-9.1593 -71.9957,-15.9155 -39.27343,-6.8437 -62.883,-7.3297 -19.5599,-1.04 -52.24163,1.67 -19.57605,1.2858 -76.93147,10.9399 -36.81267,-10.6648 -75.45567,-11.9954 -34.09516,-0.9431 -90.44643,6.1887 -41.09761,5.2182 -85.25919,11.8457 92.77816,39.8572 136.45849,50.0175 43.10198,11.5691 94.61535,14.968 50.48419,2.7156 91.95625,-2.0692 43.55046,-4.6561 88.7937,-17.0597 29.81206,-7.1517 115.4623,-38.2961"
         id="path852" />
    </g>
    <g
       style="fill:#cb7576;fill-opacity:1;stroke-linejoin:miter"
       id="g858">
      <path
         d="m 550.4694,1320.4932 q -5.2683,-0.074 -10.4995,0.01 -0.40124,-0.019 -0.9103,-0.026 -6.7874,-0.095 -32.76346,1.8802 -27.8493,2.4409 -77.004,10.9464 -43.33541,-11.5083 -72.34747,-11.9162 -0.45537,-0.01 -0.90713,-0.01 -2.30316,-0.064 -4.67394,-0.098 -36.12556,-0.5076 -87.97368,6.2173 -41.09761,5.218 -85.25911,11.8457 92.77799,39.8579 136.45851,50.0179 28.8548,7.4549 58.56586,11.4371 l 23.17902,-6.9962 85.65835,-28.3717 q 14.47907,-4.4826 28.88733,-8.1722 14.40792,-3.69 28.61206,-6.1823 l 14.11986,-2.092 q 14.0523,-1.7418 27.70125,-1.6794 0.49845,0 0.99635,0.011 13.1177,0.1845 25.83605,2.0761 l 13.11295,2.34 q 13.015,2.7579 25.7169,6.8535 6.4468,2.2011 12.85295,4.5756 20.37485,-7.089 45.58855,-16.2573 l -12.07287,-2.9643 q -78.71983,-20.3011 -130.54278,-23.0592 -6.1911,-0.2991 -12.33175,-0.3852 z"
         id="path856" />
    </g>
    <g
       style="fill:#000000;fill-opacity:1;stroke-linejoin:miter"
       id="g862">
      <path
         d="m 686.21313,1342.1238 q -103.57993,7.3237 -164.4223,9.6856 -71.10296,2.3908 -87.32876,2.1628 -0.83405,-0.012 -1.52317,-0.03 -17.17367,0.089 -34.03085,-0.148 -11.68135,-0.164 -23.21069,-0.4848 -28.13959,-0.8122 -55.3721,-2.5586 -14.05951,-0.4169 -80.06852,-6.9198 -22.79432,-2.3988 -51.31028,-6.0967 -5.38836,0.7927 -10.81565,1.6075 9.2345,3.9672 17.98261,7.6402 83.61531,5.778 147.32493,10.7942 24.84922,1.2945 45.03055,1.578 12.19522,0.1715 22.68607,-0.026 71.51477,-0.693 213.55218,-8.0735 43.96055,-2.2721 80.56311,-4.3853 l -11.92633,-2.9311 q -3.58713,-0.9249 -7.11847,-1.8137 z"
         id="path860" />
    </g>
    <g
       style="fill:#7a5148;fill-opacity:1;stroke-linejoin:miter"
       id="g866">
      <path
         d="m 617.69556,590.5214 q 32.10354,-27.9397 59.15728,-41.0795 -21.09088,16.78594 -29.30371,24.11505 l 31.91303,-18.14545 -30.31201,25.93066 q 33.2196,-20.75936 48.42635,-27.59516 -32.1022,21.21815 -32.26003,22.8476 l 60.73443,-22.6528 q -34.0984,14.19724 -49.09753,23.1998 2.20793,0.18976 10.28119,-1.3936 38.60214,-8.73384 46.9212,-10.1286 13.10844,-2.5392 26.5213,-4.2569 53.19754,-6.25355 76.87704,-4.574 101.2289,5.792 190.8974,31.43947 Q 906.49384,532.7659 819.75964,525.1586 707.4532,513.7349 640.83044,548.2095 Z"
         id="path864" />
    </g>
    <g
       style="fill:#7a5148;fill-opacity:1;stroke-linejoin:miter"
       id="g870">
      <path
         d="M 341.1748,608.05884 C 325.56784,592.1673 313.6189,580.78064 305.3281,573.8994 l 12.15606,16.5261 -16.35721,-7.0888 29.35385,29.9676 -83.95571,-31.6227 c 29.11709,16.24736 47.45697,26.88053 55.01959,31.8991 -82.81896,-21.4346 -163.26753,-30.17555 -241.210787,-24.3265 -63.8857567,4.7942 -112.19022,20.4493 -145.064883,45.071 22.441294,-35.01044 40.664153,-55.5444 52.951333,-64.22175 C -17.943806,560.3323 3.2992013,550.8973 33.684258,543.65967 93.96038,529.3022 202.52026,536.9852 307.8552,553.9537 Z"
         id="path868" />
    </g>
    <g
       style="fill:#000000;fill-opacity:1;stroke-linejoin:miter"
       id="g874">
      <path
         d="m -278.04526,595.3996 -2.71481,23.37414 q -9.46488,77.41276 -2.59689,100.74776 7.16153,22.67326 31.85696,23.06773 l 52.66212,178.45252 q 13.32924,39.10229 22.88891,51.65491 29.21247,53.39024 143.301845,55.21884 146.958065,3.4783 192.663395,-3.6747 51.9566,-5.856 91.35131,-33.7372 38.18769,-31.16266 62.16822,-79.64984 72.73822,-171.58801 87.1856,-196.1217 23.47895,-5.35326 34.68738,-5.09106 29.24494,-0.22987 46.76947,26.1701 6.55365,7.139 21.81715,42.20056 40.4382,124.57144 58.98324,148.37628 37.60913,54.10852 69.28186,66.79176 46.4242,26.2862 149.5187,33.073 55.7546,3.2563 135.7076,-0.7937 60.5215,-1.8599 93.9739,-10.7226 43.4396,-10.9126 68.6803,-60.5777 54.856,-117.46705 62.7947,-222.65797 49.6338,-9.73653 50.1794,-46.26733 4.2041,-3.47925 -8.694,-112.18463 -85.6174,-7.57287 -186.33846,-14.52037 -128.67384,-8.18904 -216.19764,-2.97524 -66.84057,2.92744 -267.764,24.47164 -42.20685,3.6561 -87.96637,4.4054 -24.73578,0.3542 -61.7279,-0.5012 -90.80377,-8.64976 -177.37857,-10.5992 -54.5838,-1.57156 -170.610202,1.4272 -155.379398,3.9225 -294.483218,20.6426"
         id="path872" />
    </g>
    <g
       style="fill:url(#linearGradient1878);fill-opacity:1;stroke-linejoin:miter"
       id="g878">
      <path
         d="m -205.27515,693.59503 -0.28581,28.74512 q -4.70851,160.94635 38.83037,221.1098 29.32077,36.87171 60.51981,45.93545 39.41145,16.6064 117.493159,17.5874 58.132031,0.5158 142.078721,-13.6751 67.80948,-10.524 89.3476,-29.69626 39.66026,-43.0791 59.88218,-99.20744 16.76862,-44.9123 19.69348,-144.0804 1.02454,-71.31647 -13.13189,-97.4238 -12.08149,-13.5501 -17.72987,-13.65695 -15.52593,-5.60785 -47.1667,-6.4245 -260.300715,-5.47155 -355.36282,12.69202 -19.90869,3.85009 -34.25064,8.92683 -9.8911,1.93895 -33.03088,17.4327 -20.73596,16.02346 -26.88671,51.73513"
         id="path876"
         style="fill:url(#linearGradient1876)" />
    </g>
    <g
       style="fill:url(#linearGradient1882);fill-opacity:1;stroke-linejoin:miter"
       id="g882">
      <path
         d="m 522.13837,713.0188 3.25158,22.8146 q 7.92695,69.6227 32.30329,128.6328 24.92102,46.20256 34.65722,52.3772 14.56054,15.5183 34.14728,27.7938 6.00153,6.0532 52.82782,24.06226 39.56354,12.94544 84.16937,19.12329 89.90033,11.81031 170.29053,4.85965 48.3006,-5.59646 52.68374,-8.2874 14.2942,-3.7529 25.0651,-9.0427 10.7706,-5.2899 18.7672,-12.31147 5.1702,-2.28243 19.6199,-25.44818 20.1008,-42.14895 31.1999,-110.62245 17.8199,-117.3354 11.9761,-148.4199 -1.6414,-11.6561 -6.0487,-21.8015 l -5.3199,-9.76674 q -6.1222,-9.38856 -16.3379,-17.26046 -23.3394,-16.54545 -54.9611,-23.8015 -101.4557,-23.7853 -266.47564,-16.2673 -253.17563,16.9118 -221.81579,123.366"
         id="path880"
         style="fill:url(#linearGradient1880)" />
    </g>
    <g
       style="fill:#000000;fill-opacity:1;stroke-linejoin:miter"
       id="g884" />
    <g
       style="fill:#000000;fill-opacity:1;stroke-linejoin:miter"
       id="g886" />
    <g
       style="fill:#000000;fill-opacity:1;stroke-linejoin:miter"
       id="g888" />
    <g
       style="fill:#000000;fill-opacity:1;stroke-linejoin:miter"
       id="g890" />
    <g
       style="fill:#000000;fill-opacity:1;stroke-linejoin:miter"
       id="g892" />
    <g
       style="fill:#000000;fill-opacity:1;stroke-linejoin:miter"
       id="g896">
      <path
         d="m -1053.7299,3545.6562 v 3e-4 q 0,0 0,-3e-4"
         id="path894" />
    </g>
    <g
       style="fill:#000000;fill-opacity:1;stroke-linejoin:miter"
       id="g898" />
    <g
       style="fill:#000000;fill-opacity:1;stroke-linejoin:miter"
       id="g900" />
    <g
       style="fill:#000000;fill-opacity:1;stroke-linejoin:miter"
       id="g904">
      <path
         d="m 367.25186,1116.6941 v 0 q -18.26026,-16.0851 -27.67639,-22.3505 -3.78351,-2.5686 -7.39673,-4.5129 l -3.56,-1.7494 q -3.51214,-1.5737 -6.79014,-2.2892 -7.87685,-1.6125 -15.19728,1.6106 -1.25247,0.3019 -6.96195,3.8383 -3.41187,2.1726 -11.00427,8.5929 11.42868,-3.7333 14.65082,-4.2305 5.0578,-1.1242 9.02748,-0.4935 0.86644,-0.013 3.79088,1.4526 1.42402,0.7307 5.20902,4.1428 1.70705,1.1836 2.01415,1.0419 0.96158,0.031 1.27955,-0.1317 3.5054,-1.5008 4.28445,-1.6161 2.10742,-0.4095 2.72088,-0.3281 2.95292,-0.1028 7.64569,1.9099 10.78043,4.9226 34.74348,22.6017 l -6.77964,-7.4899"
         id="path902" />
    </g>
    <g
       style="fill:#000000;fill-opacity:1;stroke-linejoin:miter"
       id="g908">
      <path
         d="m 464.39267,1119.6964 3.25333,-4.9089 q 9.66146,-15.1604 20.2093,-26.4182 3.54875,-3.6081 7.29448,-6.3488 l 3.80725,-2.4697 3.93039,-1.9278 4.0658,-1.3314 q 0.57864,-0.1418 1.16296,-0.2586 8.72525,-1.927 21.67648,2.3719 7.96637,1.9893 33.90244,16.9261 -11.73593,-4.8642 -17.8677,-6.5616 -6.07795,-1.5577 -7.17554,-1.5638 -2.3172,-0.328 -4.50966,-0.3329 -4.75383,-0.07 -9.281,1.994 -2.1855,1.0039 -4.1857,2.2662 l -9.08614,6.0075 q -1.65842,0.9488 -3.22852,1.3886 l -1.55499,0.2577 q -1.23335,0.2615 -4.29917,-0.9836 l -6.50298,-3.7167 q -1.3268,-0.7213 -2.7035,-1.1776 -3.3229,-0.815 -4.65033,-0.2541 -2.29904,0.6683 -3.96707,1.9344 -0.87064,0.2686 -5.77295,5.3777 -4.95242,5.453 -14.51718,19.7296"
         id="path906" />
    </g>
    <g
       style="fill:#ffffff;fill-opacity:0.32549;stroke-linejoin:miter"
       id="g912">
      <path
         d="m 1088.7275,698.58093 1.626,-7.86643 q 6.7073,-24.0274 -3.0502,-44.20223 -3.8623,-6.58222 -11.3835,-12.30837 l -8.6647,-5.45854 q -9.6936,-5.21786 -24.4182,-9.25842 -14.8771,-4.00494 -34.7851,-6.8327 l -20.9372,-2.58694 q -22.0806,-2.3194 -47.8199,-3.78263 -63.434,-3.87217 -205.7882,-4.24977 117.53635,10.42366 172.3105,17.8013 53.3134,7.59776 60.7779,9.59947 18.2348,3.50506 33.087,7.52013 14.7496,4.0305 26.1164,8.57093 7.3365,2.02107 28.0275,14.53707 19.2301,12.7361 34.9017,38.51713"
         id="path910" />
    </g>
    <g
       style="fill:#ffffff;fill-opacity:0.32549;stroke-linejoin:miter"
       id="g916">
      <path
         d="m 283.18243,610.02234 -336.83042,-0.9126 q 139.37913,6.64423 189.19416,10.90236 10.05054,0.6407 47.22313,4.26744 13.89017,1.44626 26.54526,2.9176 58.4576,7.06276 62.50494,7.2732 7.95992,0.78363 14.0249,1.08362 l 5.54998,0.14739 q 5.62164,0.0378 8.91342,-0.88958 l 2.27826,-1.03087 q 1.67569,-1.223 1.37891,-3.07485 1.92688,-2.90015 -20.78254,-20.68371"
         id="path914" />
    </g>
    <g
       style="fill:#ffffff;fill-opacity:0.32549;stroke-linejoin:miter"
       id="g918" />
    <g
       style="fill:#ffffff;fill-opacity:0.32549;stroke-linejoin:miter"
       id="g922">
      <path
         d="m 2575.0752,-1216.1992 v 5e-4 q 0,0 0,-5e-4"
         id="path920" />
    </g>
  </g>
  <defs
     id="defs930">
    <linearGradient
       id="grad0"
       gradientUnits="userSpaceOnUse"
       x1="960.80408"
       y1="260.49823"
       x2="876.28156"
       y2="1056.0564">
      <stop
         offset="0.0%"
         style="stop-color:rgb(120,120,120); stop-opacity:1.0"
         id="stop925" />
      <stop
         offset="100.0%"
         style="stop-color:rgb(0,0,0); stop-opacity:1.0"
         id="stop927" />
    </linearGradient>
    <linearGradient
       inkscape:collect="always"
       xlink:href="#grad0"
       id="linearGradient1876"
       gradientUnits="userSpaceOnUse"
       x1="960.80408"
       y1="260.49823"
       x2="876.28156"
       y2="1056.0564" />
    <linearGradient
       inkscape:collect="always"
       xlink:href="#grad0"
       id="linearGradient1878"
       gradientUnits="userSpaceOnUse"
       x1="960.80408"
       y1="260.49823"
       x2="876.28156"
       y2="1056.0564" />
    <linearGradient
       inkscape:collect="always"
       xlink:href="#grad0"
       id="linearGradient1880"
       gradientUnits="userSpaceOnUse"
       x1="960.80408"
       y1="260.49823"
       x2="876.28156"
       y2="1056.0564" />
    <linearGradient
       inkscape:collect="always"
       xlink:href="#grad0"
       id="linearGradient1882"
       gradientUnits="userSpaceOnUse"
       x1="960.80408"
       y1="260.49823"
       x2="876.28156"
       y2="1056.0564" />
  </defs>
</svg>
